<?xml version='1.0' encoding='utf-8'?>
<svg xmlns="http://www.w3.org/2000/svg" enable-background="new 0 0 494 1275" version="1.1" viewBox="0 0 494 1275">
<g fill="#343434">
	<path d="m79.055 8.19c8.66 7.05 14.95 17.3 16.96 28.34 2.42 11.24-0.15 23.37-6.43 32.94-2.17 3.46-5.48 5.92-8.24 8.85-0.83 2.86-0.31 5.9-0.15 8.82 2.67-1.01 5.21-2.33 7.69-3.73 0.46 2.32 0.82 4.66 1.21 6.99 4.48-0.13 8.77-1.47 12.73-3.5-0.51 2.87-1.02 5.73-1.39 8.63 3.69-1.19 6.91-3.36 9.87-5.8-0.4 2.57-1.12 5.07-2.03 7.51 1.21 0.48 2.42 0.95 3.63 1.43-1.97 2.66-3.91 5.34-5.75 8.1 1.66 4.91 3.13 9.92 4.1 15.02-1.5 3.12-2.97 6.43-5.42 8.94-4.96 4.02-11.63 4.65-17.76 5.2 0.65 3.06 1.53 6.3 0.51 9.38-0.9 2.6-3.55 3.88-5.12 6-0.77 4.73-0.66 9.9 1.69 14.19 3.84 7.51 7.8 14.96 11.62 22.47 1.52 2.78 1.64 5.99 1.8 9.08 0.49 13.73 1.05 27.51-0.09 41.22-0.61 5.93 0.33 11.86 1.04 17.73 2.33 18.31 7.28 36.14 12.54 53.79 5.64 18.56 8.68 38.28 6.03 57.63 18.07-0.26 36.15 0.23 54.21-0.24 3.3-1.51 5.81-4.46 8.89-6.42-0.92-1.11-1.84-2.2-2.78-3.28-2.51 3.19-4.46 6.8-7.34 9.68 0.74-4.7 4.23-8.14 7.1-11.67-13.92-15.13-28.61-29.56-42.42-44.78 18.8 12.26 37.21 25.15 56.05 37.34 7.02-3.04 14.46-5.18 22.09-5.79 0.43-19.33-0.14-38.68 0.25-58 2.05 5.77 2.97 11.86 4.49 17.78 3.24 12.92 6.09 25.95 9.41 38.85 5.37 0.83 10.63 2.25 15.7 4.19 15.15-11.32 30.24-22.71 45.32-34.12 1.56-1.2 3.37-1.99 5.22-2.65-2.86 5.23-6.98 9.6-10.52 14.36-7.98 10.44-16.22 20.67-24.15 31.15 2.6 2.65 5.18 5.34 7.67 8.1 20.03-3.46 40.05-6.95 60.05-10.52 3.59-0.62 7.19-1.41 10.86-1.22-20.5 9.05-41.17 17.76-61.66 26.85 0.46 2.18 0.95 4.35 1.45 6.53 21.23 2.74 42.43 5.68 63.64 8.57 2.4 0.29 4.81 0.71 6.99 1.81-21.29 1.09-42.51 3.35-63.81 4.19-1.67 0.18-3.49-0.03-5.03 0.74-3.22 4.91-3.98 11.19-3.21 16.93 0.46 3.92 3.65 6.87 4.14 10.75-0.32 3.27-4.28 3.25-6.67 4.14 3.09 11.93 6.31 23.82 9.46 35.73 0.2 1.2 0.74 2.63-0.11 3.72-2.12 3.28-4.64 6.27-6.79 9.53 4.68 11.84 9.23 23.74 13.91 35.58 1.13 3.15 5.1 3.54 6.89 6.16 0.74 1.89 0.7 3.97 0.93 5.97 14.84 4.56 25.8 16.76 32.96 30.05 6.91 13.22 11.54 27.65 13.53 42.44 0.4 5.72 5.13 9.64 7.27 14.69 1.94 3.31 2.41 7.92 6.23 9.74 7.78 4.55 14.45 10.75 20.41 17.46 6.6-9.98 13.02-20.08 19.54-30.12 1.6 1.01 3.17 2.09 4.76 3.14 0.56-3.6 1.07-7.2 1.73-10.77 8.49 4.49 16.96 9.01 25.46 13.5 15.81 8.05 31.09 17.17 47.36 24.29-3.08 3.27-6.26 6.44-9.42 9.64 1.45 1.56 2.91 3.11 4.37 4.68-4.24 7.21-8.92 14.16-13.09 21.41 2.83 3.96 6.06 7.8101 7.6 12.51 1.18 3.35-0.95 6.6-2.35 9.53-6.11 10.88-12.97 21.35-18.39 32.62-2.65 5.64-6.21 11.01-11.24 14.8-5.4 4.35-12.43 5.74-19.19 6.05-1.37 13.84-3.37 27.6-5.64 41.32-2.07 11.01-4.02 22.16-8.17 32.62-2.45 5.95-6.44 11.98-12.77 14.23-3.15 1.23-6.72 0.09-9.84 1.16-3.86 2.88-7.01 6.58-10.5 9.88 0.73 7.67 2.28 15.22 3.38 22.85 2.96 20.1 6.14 40.18 9.21 60.27 0.78 3.59-3.83 5.7-3.13 9.29 2.6 21.98 5.7 43.91 7.96 65.93-3.34 1.74-6.63 3.59-9.95 5.38 0.55 10.56 1.63 21.07 2.45 31.61-2.34 1.76-4.68 3.52-7 5.3099 0.04 3.8301 0.04 7.67 0 11.51-1.31 1.35-4.13 2.0601-3.81 4.3401 1.47 20.03 3.57 40.02 4.81 60.07 0.04 2.1801 0.37 4.47-0.31 6.61-3.14 5.75-9.84 8.5701-13.49 13.68 1.62 33.91 3.6 67.84 6.25 101.71 0.23 5.67 2.31 10.98 4.83 16h-306.96c0.96-2.8101 1.45-5.9 3.43-8.21 4.4-5.1901 10.81-8.1001 17.18-10.06 3.5-0.6899 4.24-4.64 5.37-7.4399 2.96-9.8 4.04-20.04 6.23-30.02 0.95-3.05-1.7-5.4301-2.49-8.17-1.72-4.35-0.09-8.96 0.53-13.34 0.24-5.63-1.97-11.08-1.81-16.68 1.19-3.12 3.6-5.5299 5.65-8.09-4.39-13.34-5.37-27.47-5.9-41.41-0.44-16.18-0.16-32.39 1.01-48.53 1.12-14.14 2.63-28.34 6.38-42.04-1.49-3.92-3.83-7.62-3.98-11.94-1.04-13.81 2.63-27.57 8.05-40.17 0.79-1.65 0.64-3.5 0.42-5.2401-5.22-36.82-9.79-73.76-16.58-110.34-4.76-27.9 1.39-56.62 12.99-82.1-4.41-0.11-9.02-0.6299-12.77-3.17-6.07-4.07-11.77-10.29-11.57-18.07-0.39-18.13 3.77-36.01 8.2-53.48 4.97-17.77 11.01-35.47 20.67-51.29 1.35-1.85 0.11-4.07-0.48-5.95-4.77-12.04-11.79-23.08-19.98-33.08-1.85-2.29-3.67-5.04-3.28-8.13 0.67-5.44 4.77-9.45 8.06-13.49 1.17-1.53 2.83-3.23 2.22-5.33-1.29-4.74-8.02-5.39-8.8-10.4-1.12-7.77 2.5-15.15 6.12-21.78-2.63-2.43-5.12-5.01-7.3-7.85-1.58-1.85-2.91-4.34-5.59-4.63-3.67-0.9-8.81-2.08-9.08-6.72-0.51-8.11 4.85-14.89 9.06-21.3-1.79-0.46-3.7-0.59-5.34-1.5-4.47-3.17-10.23-1.43-15.31-2.44-4.86-12.96-7.98-26.71-7.66-40.61 0.29-24.15 10.31-47.28 24.81-66.27 1.09-1.61 2.6-3.07 3.08-5 0.06-4.7-1.26-9.28-1.63-13.94-0.41-3.91 0.03-7.94-1.18-11.74-4.62-15.26-10.94-30.14-13.06-46.05-1.6-11.37 1.41-22.66 1.21-34.03-0.15-10.13 0.45-20.44-1.68-30.4-1.54-3.77-0.05-8.12-2.35-11.64-1.95-2.97-0.89-6.5-1.13-9.78-1.03-3.81-5.18-5.36-7.38-8.36-0.69-3.29 2.41-5.26 4.62-7-0.32-1.46-0.63-2.92-0.91-4.39 1.25-1.38 2.48-2.79 3.68-4.22-2.25-2.85-4.75-5.54-6.49-8.76-2.8-4.86-4.05-10.4-6.57-15.39-1-2.12-2.29-4.37-1.79-6.81 0.36-2.63 2.85-4.09 4.62-5.77-2.09-2.4-4.12-4.86-5.98-7.44 0.61-2.09 2.21-4.17 1.44-6.42-0.44-2.13-1.46-4.19-1.33-6.39 1.28-2.71 3.9-4.37 6.1-6.25-2.46-2.86-5.42-5.36-7.32-8.66-1.35-4-1.41-8.3-2.74-12.31-3.05-2.36-7.01-3.37-9.8-6.13-2.99-2.97-4.73-6.92-6.45-10.7 5.56-6.01 13.87-7.96 21.74-8.51 11.85-0.82 23.76-0.61 35.63-0.41 10.27 0.22 20.49 2.16 30.03 5.99-1.25-6.22-4.79-11.69-10.06-15.25-1.08 2.31-2.69 4.3-4.77 5.79-2.98-3.62-4.8-7.98-7.5-11.78-4.02 0.04-2.72 5.63-3.68 8.29-1.6-2.8-3.2-5.6-5.01-8.27-1.62 1.76-3.17 3.58-4.7 5.41-3.1-2.27-4.26-5.94-5.55-9.37-3.16 0.16-6.31 0.47-9.43 0.99-0.99 3.75-2.03 7.49-3.14 11.21-1.63-3.58-3.01-7.27-4.51-10.91-2.52 0.69-5.01 1.48-7.48 2.32 0.36 3.64 0.74 7.28 0.72 10.94-2.53-3.01-4.26-6.55-6.02-10.03-2.34 1.07-4.64 2.2-6.91 3.41 0.24 1.91 0.52 3.81 0.78 5.72-0.5 0.46-1.49 1.38-1.99 1.84-3.26-5.19-8.17-9.3-10.33-15.16 2.38 0.66 4.77 1.28 7.2 1.7-0.15-2.08-0.41-4.14-0.66-6.21 1.74 1.38 3.39 2.91 5.34 3.99 1.58 0.56 3.28-0.17 4.89-0.27 0.16-1.98 0.3-3.96 0.47-5.93 3.97 2.44 8.16 4.9 13.04 4.23 0.28-3.45 0.58-6.9 1-10.34 3.18 2.3 5.2 5.67 5.46 9.63 3.88 0.45 7.82 0.58 11.69-0.07-2.93-3.25-6.79-5.33-10.35-7.76-2.86-1.85-3.71-5.5-6.44-7.51-3.84-2.95-7.27-7.57-6.25-12.67 1.25-3.94 3.68-7.41 4.89-11.36 0.31-4.09-0.9-8.7 1.82-12.23 4.2-5.77 11.79-6.75 18.09-8.91 5.52-1.67 11.78-4.35 13.69-10.33 1.55-3.32-0.39-6.74-1.25-9.95m3.8 5.39c-0.5 2.94-0.85 6.05-2.65 8.53-8.57 12.77-23.76 18.82-33.15 30.8 5.65-2.13 11.57-3.27 17.47-4.4 7.06-1.37 14.23-4.68 18.12-11 4.24-7.2 4.4-16.66 0.21-23.93m4.36 5.93c0.64 7.09-0.16 14.35-2.59 21.05-3.21 8.13-11.01 13.27-18.91 16.19-3.24 1.39-6.98 1.98-9.68 4.4-1.15 3.12 2.3 5.27 4.92 5.77 5.55 0.97 10.85-1.77 15.32-4.78 7.47-5.23 14.08-12.44 16.62-21.38 2.72-7.5-1.73-15.09-5.68-21.25m-35.15 16.45c-3.96 2.69-4.13 7.91-3.71 12.2 7.9-6.74 16.56-12.6 24.11-19.73-6.82 2.41-14.3 3.45-20.4 7.53m-6.98 100.02c-1.14 2.36-2.59 4.83-2.15 7.56 1.62 2.43 4.81 0.69 7.12 0.55 10.24-2.57 20.9-1.68 31.1 0.58-2.22-1.99-4.9-3.36-7.72-4.24-9.13-2.95-18.72-4.97-28.35-4.45m4.94 11.64c0.47 3.05 1.22 6.04 1.98 9.02 2.99 0.01 5.99 0.03 8.98 0-2.89-3.74-5.84-8.38-10.96-9.02m19.27 9.05c0.16 5.14 0.77 10.62 3.84 14.92 1.56 2.26 4.37 2.96 6.46 4.57 2.04 1.89 2.92 4.64 3.81 7.2 3.35 10.81 4.37 22.3 3.14 33.55 2.72-5.62 2.95-12 3.13-18.12-0.26-8.33-1.62-16.84-5.46-24.32-1.47-4.1-6.81-3.51-9.29-6.68-3.17-3.02-2.84-7.95-5.63-11.12m-12.91 4.31c-0.22 0.78-0.65 2.35-0.87 3.13-4.46-1.39-9.07-2.64-13.79-2.13 0.65 2.1 1.26 5.37 4.18 4.98 5.78 0.22 11.99 1.27 17.45-1.12-0.45-1.36-0.83-2.75-1.47-4.03-1.67-0.9-3.68-0.57-5.5-0.83m-15.63 14.18c3.02 3.17 6.82 5.94 11.24 6.63 3.12 0.46 5.89-1.42 8.88-1.85 3.9 0.75 7.81 2.92 11.84 1.76 1.77-0.46 2.01-2.48 2.75-3.86-7.61-1.63-14.46-6.96-22.51-5.99-4.19 0.57-8.23 1.92-12.2 3.31m0.96 13.68c0.26 1.36 0.19 2.98 1.47 3.88 4.89 0.72 9.87 0.09 14.79 0.42 3.97-0.01 7.88 0.96 11.86 0.8-0.18-1.98-0.05-4.94-2.56-5.47-4.64-1.37-9.55-1.24-14.33-1.5-3.79 0.03-8.05-0.7-11.23 1.87m11.76 21.92c2.19 4.12 4.6 8.76 3.44 13.56-1.44 1.47-4.35 1.02-4.67 3.61 2.69 0.7 5.48 0.67 8.22 0.37 7.37-0.69 14.96-0.79 22.04 1.7-2.28-3.44-5.64-6.3-9.79-7.06-3.03-0.81-6.64-0.18-9.15-2.37 3.11-0.7 9.46-0.03 9.3-4.6-4.13-4.36-8.58-8.61-10.74-14.38-2.09 3.75-5.63 6.23-8.65 9.17m-1.61 21c-2.25 0.55-1.72 3.24-1.84 4.98 3.76 0.16 7.41-0.85 11.09-1.48 6.24-1.12 12.62-0.38 18.68 1.32-1.66-1.99-3.88-3.44-6.37-4.18-6.91-2.25-14.53-2.48-21.56-0.64m6.01 15.08c0.11 1.68 0.23 3.36 0.37 5.04 4.82-0.6 9.67-2.15 14.48-0.48-2.74-5.13-9.73-6.61-14.85-4.56m3.01 9.65c-0.06 0.81-0.19 2.41-0.25 3.22 3.96-0.16 7.92-0.01 11.87-0.18-2.75-3.45-7.66-3.08-11.62-3.04m1.07 15.09c0.25 17.41 0.57 34.84-0.11 52.24-0.04 5.02 0.94 9.98 2.19 14.82 3.03 11.49 7.43 22.61 12.79 33.22 2.31 5.53 8.73 8.77 14.57 8.08-7.69-17.03-15.79-34.04-20.34-52.25-3.84-18.46-5.17-37.32-6.26-56.11h-2.84m195.8 65.06c-4.09 3.35-8.8 6-12.42 9.9 1.13 0.49 2.28 0.97 3.43 1.46 12.26-10.87 25-21.2 37.08-32.26-9.68 6.52-18.62 14.07-28.09 20.9m-72.03 18.03c0.35 0.52 1.04 1.54 1.38 2.06 9.21-5.72 20.19-8.22 30.97-7.1-0.77-1.63-1.57-3.24-2.36-4.85-10.65 0.05-21.46 3.44-29.99 9.89m43.35-10.44c0.68 1.66 0.51 4.45 2.88 4.6 9.54 2.72 19.01 6.16 27.07 12.09-2.21-4.08-5.94-7.02-9.79-9.47-6.05-3.89-12.96-6.57-20.16-7.22m-18.98 7.7c1.85 6.13 2.55 12.51 3.02 18.88 1.21-0.11 2.43-0.23 3.65-0.34 0.19-6.34-0.33-12.68-0.87-18.99-1.94 0.12-3.87 0.28-5.8 0.45m15.35 1.35c-0.3 4.81-0.09 9.65-0.1 14.47-0.12 1.29 0.67 2.34 1.3 3.4 0.6-6.3 0.29-12.65 0.19-18.96-0.35 0.28-1.04 0.82-1.39 1.09m-26.85 1.53c2.39 5.56 3.24 11.6 3.53 17.6 1.25-0.01 2.49 0 3.74 0.01 0.3-6.3-0.13-12.72-2.36-18.67-1.65 0.33-3.28 0.68-4.91 1.06m35.71-0.99c-0.52 5.67-1.03 11.37-0.77 17.07 1.36 0.31 2.72 0.61 4.08 0.91 0-6.03 0.55-12.03 1.49-17.97-1.6-0.03-3.2-0.03-4.8-0.01m75.71 2.28c-13.84 2.66-27.78 4.72-41.6 7.46 0.97 1.36 1.95 2.73 2.92 4.1 17.51-4.64 35.1-9.01 52.61-13.63-4.7 0.29-9.32 1.23-13.93 2.07m-123.16 3.8c3.42 4.73 5.97 10.05 7.35 15.74 0.98-0.7 1.95-1.41 2.94-2.09-0.78-5.45-3.01-10.61-6.49-14.87-1.27 0.39-2.54 0.81-3.8 1.22m61.65-0.77c-1.22 4.34-2.43 8.73-2.65 13.27 0.43 0.05 1.28 0.16 1.71 0.21 0.33-4.83 1.78-9.45 3.12-14.06-0.54 0.14-1.63 0.43-2.18 0.58m-69.59 4.53c1.79 3.21 4.32 5.99 5.69 9.44 0.89 1.72 1.14 4.14 3.27 4.82-0.32-3.69-2.02-7.03-4.01-10.07-1.24-1.8-2.45-4.17-4.95-4.19m77.49 2.76c-1.51 3.74-2.74 7.62-3.38 11.61 2.21-0.74 2.4-3.2 3.07-5.07 0.92-3.24 2.38-6.3 3.21-9.57-1.3 0.65-2.48 1.58-2.9 3.03m-82.98 4.05c2.05 3.87 5.74 6.63 8.83 9.67-0.77-4.55-4.76-7.95-8.83-9.67m85.54 11.82l1.52-0.92c2.28-3.47 4.71-6.9 6.52-10.65-4.54 1.86-6.68 7.15-8.04 11.57m-40.34-10.72c2.26 3.81 3.71 8.38 7.25 11.24 14.55 4.75 28.87 10.83 41.6 19.43-1.64-7.26-5.74-13.84-11.47-18.56-10.32-8.62-24.07-12.44-37.38-12.11m-32.28 11.71c-3.24 2.28-7.33 4.21-8.65 8.25-1.22 3.61-2.57 7.88-0.81 11.51 1.28 2.47 4.34 0.99 6.06-0.14 12.09-8.28 23.93-17.15 37.31-23.29-1.73-3.02-4.76-5.18-8.32-5.27-9.33-0.48-17.91 4.16-25.59 8.94m-66.01-7.71c2.41 5.7 6.29 10.76 11.19 14.55 1.02 0.76 2.14 1.7 3.52 1.44 9.72-0.81 19.43-1.8 29.16-2.56 0.06-3 0.05-6-0.05-8.99-14.6-1.6-29.18-3.34-43.82-4.44m49.21 1.91c0.16 0.46 0.49 1.38 0.65 1.84 2.69 2.29 5.42 4.78 8.82 5.94-2.05-3.69-5.66-6.18-9.47-7.78m-50.49 1.31c1.1 6.3 2.8 12.5 3.64 18.84-5.15 11.06-11.34 21.72-18.29 31.76-3.1-8.95-6.91-17.76-12.84-25.23-3.88-4.77-7.9-9.79-13.48-12.63-0.43 1.68-1.17 3.36-1.08 5.14 3.89 22.12 9.65 44.15 9.92 66.74 4.87-5.08 8.86-10.88 13.03-16.52 11.84-17.1 22.02-35.63 27.66-55.75-3.21-3.86-6.06-8-8.56-12.35m144.67 9.35c3.01-2.48 5.32-5.89 6.52-9.6-3.57 1.81-5.85 5.73-6.52 9.6m-95.96-3.45c1.96 2.94 5.23 4.71 8.27 6.35-0.99-3.72-4.72-5.75-8.27-6.35m110.6 0.6c0.25 1.39 0.51 2.79 0.77 4.19 11.57 0.81 23.16 1.32 34.73 2.26 5.78 0.14 11.52 1.17 17.32 0.81-17.54-2.88-35.22-4.81-52.82-7.26m-10.65 6.51c2.61 1.59 4.76-1.5 6.33-3.17-2.54-0.01-4.59 1.47-6.33 3.17m-45.51-1.79c-2.91 8.55-12.48 10.91-18.42 16.67 4.89 0.81 9.8-0.13 14.68-0.57-1.39 4.59-3.21 9.04-4.52 13.66-0.99 3.84-3.9 6.83-7.22 8.82-3.46 2.32-8.11 3.02-10.72 6.48 0.63 8.46 1.33 17.12 3.97 25.24 2.56-1.94 4.16-4.75 5.85-7.4 0.7 2.8 1.15 5.66 1.63 8.5 4.87 1.86 9.95 4.42 15.3 3.49 0.42-3.27-0.29-6.5-1.3-9.59-2.63-0.39-5.29-0.54-7.92-0.81 0.92-2.75 3.93-3.66 5.75-5.69-2.9-1.82-5.46 0.52-7.34 2.57-1.5-0.06-3-0.13-4.49-0.21 2.42-4.31 7.27-5.4 11.38-7.38-1.34-1.58-3.26-2.25-5.18-2.77-1.11-2.91-2.69-5.79-2.75-8.97 1.01-1.74 3.11-2.1 4.82-2.8-0.71 1.82-1.45 3.63-2.07 5.49 4.16 1.27 8.55 0.79 12.84 0.88 0.29-7.97-0.56-15.91-0.76-23.86 0.11-2-0.14-4.28 1.19-5.94 4.26-2.5 9.24 0.68 13.74-0.68-5.84-5.41-12.82-9.46-18.46-15.13m-92.11 4.38c-6.98 22.15-18.55 42.64-32.48 61.15-2.32 3.17-5.07 6.03-7.01 9.48 1.44-0.67 2.97-1.25 4.13-2.36 16.42-18.12 28.6-39.71 37.71-62.3 1.27-2.31-1.26-4.19-2.35-5.97m7.81 6.89c2.98 3.97 6.46 7.82 7.75 12.75 2.52 8.97-2.52 18.36 0.96 27.22 2.35 4.9 6.84 8.27 11.12 11.41 4.32-6.36 8.49-12.82 12.79-19.19-1.94-1.14-4.44-2.2-4.84-4.7-1.03-5.83 1.7-11.43 3.32-16.9-2.47-3.06-4.01-6.7-4.9-10.51-8.73-0.19-17.46-0.03-26.2-0.08m-2.78 1.21c-9.3 22.4-21.34 43.87-37.57 62-2.02 1.95-4.64 3.68-7.58 3.44-2.51-0.07-4.4-1.94-6.4-3.21 0.35-7.48-0.32-14.98-1.65-22.34-4.94 8.12-3.86 19.1 1.88 26.55 1.46 1.28 1.85 4.13-0.71 4.28-3.34-2.6-6.12-5.82-9.29-8.61-4.01 4.42-5.09 10.56-6.26 16.21 4.3 1.31 8.78 2.17 13.29 2.16 4.09-2.5 7.16-6.34 10.68-9.55 12.16-12.21 23.24-25.7 31.29-41-0.21 5.69-2.2 11.05-3.9 16.42 4.7-7.8 8.66-16.04 13-24.05 1.43-2.13-0.1-4.79 0.97-7.01 1.64-3.8 3.7-7.4 5.5-11.11-1.07-1.41-2.15-2.81-3.25-4.18m-81.06 44.38c-6.24 19.51-6.41 41.57 2.45 60.3 4.27-18.57 11.13-36.4 17.54-54.3-8.7 4.7-16.71 10.7-23.31 18.09 1.42-4.3 3.89-8.13 6.53-11.76 5.94-8.26 13.21-15.41 20.51-22.44-8.85 3.83-16.02 10.45-24.22 15.36 2.65-4.13 6.35-7.41 9.66-10.98 4.69-4.97 9.53-9.8 14.34-14.65 2.49-1.99 0.59-5.34 0.56-7.94-4.59 3.15-7.91 7.77-11.51 11.95-3 3.38-4.68 7.79-8.1 10.8 0.1-1.61 0.57-3.14 1.45-4.48 4.77-8.04 10.44-15.49 15.96-23 1.38-1.46 0.38-3.48 0.33-5.2-10.37 10.67-17.54 24.2-22.19 38.25m174.21-21.21c2.15 2.34 4.5 4.48 6.92 6.55-1.11 1.29-2.25 2.57-3.41 3.83 0.44 2.72 0.78 5.5 1.73 8.11 1.16 2.05 2.91 3.7 4.33 5.59-1.13 1.19-2.33 2.32-3.34 3.61-0.65 2.82-0.39 5.76-0.32 8.63 4.38-5.44 7.3-11.95 9.49-18.54 1.19-3.9 2.31-8.6-0.19-12.22-2.66-3.92-7.57-5.06-11.34-7.57-1.58-1.22-2.64 1.34-3.87 2.01m-93.38 9.34c0.47 1.94 0.91 3.89 1.3 5.86 1.7-1.82 3.79-3.38 4.95-5.61 0.96-3.73 1.06-7.61 1.43-11.42-1.96 4.1-4.39 8-7.68 11.17m-18.08 19.66c-3.17 4.33-5.36 9.26-8.28 13.75-2.63 4.39-5.78 8.42-8.47 12.77 3.68-2.69 6.65-6.19 9.57-9.64 8.24-10.04 15.53-20.88 21.75-32.29 1.56-2.57 1.19-5.67 1.28-8.53-5.44 7.87-10.3 16.14-15.85 23.94m42.33-1.09c-0.09 7.44 0.39 14.91-0.44 22.33-0.52 8.8-2.59 17.4-4.7 25.93 3.15-4.24 5.89-8.77 8.57-13.31 1.5-2.37 1.85-5.19 2.22-7.9 0.82-6.82 1.92-13.62 2.09-20.49-2.54-2.24-4.92-4.67-7.74-6.56m-6.14 3.04c0.45 10.46-0.36 20.92-0.61 31.38 2.66-10.27 2.98-20.98 3.5-31.52-0.72 0.03-2.17 0.11-2.89 0.14m17.19 6.1c-3.49 30.58-8.53 61.42-20.69 89.9-8.23 20.02-12.19 42.26-8.77 63.78 5.9-5.36 11.29-11.22 17.1-16.67 1.63-1.73 4.06-3.27 3.94-5.95 0.56-7.18 3.05-14.15 6.89-20.22-1.35 5.75-3.15 11.56-2.13 17.54 8.89-8.09 17.71-16.28 26.51-24.46l0.13-0.77c-5.22-10.41-7.2-22.05-8.34-33.54l1.76 0.76c1.89 10.53 4.28 21.31 10.09 30.47 2.9-2.51 5.75-5.09 8.62-7.64-5.78-9.2599-10.74-19.38-12.3-30.28 1.31 0.39 1.98 1.51 2.23 2.8 2.49 9.19 6.86 17.84 12.44 25.54 2.38-1.98 4.75-3.97 7.1-5.98-10.86-9.99-17.3-23.97-19.91-38.34-1.48-6.2-1.02-12.73-3.09-18.8-0.17-1.98-2.52-1.35-3.82-1.58-0.93 9.27-2.67 18.43-3.57 27.7-1.6-0.74-1.33-2.71-1.65-4.14-1.26-8.26-1.1-16.64-1.09-24.96 0.12-2.51-1.67-4.49-2.99-6.44-2.17 20.31-5.35 41.07-14.37 59.6 3.32-23.7 8.44-47.25 9.07-71.24 0.48-2.92-0.96-5.33-3.16-7.08m-52.59 14.78c-9.2 12.08-18.54 24.17-29.72 34.51 2.08-0.89 4.09-1.97 5.89-3.36 10.87-8.14 19.32-19.03 26.57-30.41 2.44-4.07 5.05-8.09 6.64-12.58-3.51 3.63-6.2 7.93-9.38 11.84m11.62 1.82c-0.34 3.43-0.94 7.68 1.81 10.34 2.17 1.81 5.07 0.7 7.35-0.22-1.96-0.46-3.93-0.82-5.89-1.25-1.41-7.61 1.81-15.01 1.88-22.6-2.82 4.05-4.16 8.95-5.15 13.73m55.04 2.43c2.47 1.54 4.95 3.08 7.53 4.45-0.6-5.62-1.64-11.19-2.79-16.71-1.94 3.93-3.12 8.19-4.74 12.26m-38.07-3.59c-3.3 9.07-6.97 18.23-13.14 25.79-2.47 3.12-5.61 5.62-8.35 8.48 4.43-1.8 8.43-4.6 11.64-8.14 8.3-8.83 11.14-21.06 13.07-32.65-1.31 2.05-2.42 4.22-3.22 6.52m50.78 1.15c-1.73 3.62-2.93 7.53-3.46 11.52 2.4 11.16 9.06 21.3 18.08 28.27 10.51 8.11 24.1 11.17 37.18 10.83 0.01 0.41 0.03 1.24 0.04 1.65-3.15 0.05-6.57-0.12-9.13 2.05-15.99 11.07-30.54 24.05-45.12 36.88-15.29 13.66-30.23 27.72-44.86 42.09-12.19 12.18-24.33 24.44-35.39 37.67-6.16 7.29-10.48 15.9-14.33 24.58-8.2 19.09-13.89 39.23-17.51 59.67-1.44 10.16-3.56 20.52-2.07 30.78 2.15 5.72 7.25 10.2 12.82 12.56-5.4-6.7599-9.63-14.65-10.39-23.41 3.29 3.69 7.35 6.76 12.36 7.56-2.22-13.28-1.43-26.87 0.99-40.06 3.39-17.36 8.95-34.31 16.55-50.29 2.68-5.16 5.01-10.66 9.04-14.95-7.96 17.69-11.01 37.05-13.62 56.13 7.83-18.48 16.6-36.61 26.96-53.82 20.45-34.29 45.53-66.06 75.77-92.25 10.28-10.05 20.24-20.43 30.4-30.6 1.06-1.1 2.39-1.86 3.76-2.5-0.38 1.83-1.15 3.54-2.17 5.11-5.61 8.96-11.51 17.74-17.62 26.37-8.72 11.93-17.14 24.26-27.6 34.75 2.85-7.35 7.31-13.94 10.32-21.21-16.82 21.78-32.8 44.25-48.14 67.11-9.39 14.26-18.77 28.63-26.19 44.04 4-3.42 8.51-6.34 11.77-10.53 6.24-7.69 12.98-14.98 20.11-21.85 3.02-2.98 6.63-5.48 8.76-9.24 8.45-13.95 18.08-27.13 27.87-40.15 20.42-26.57 42.23-52.17 66.41-75.4-10.69 0.32-18.98 7.75-27.15 13.69 3.36-8.52 11.85-13.27 19.94-16.47-5-0.05-10.35 0.15-14.72-2.7 7.43-0.05 15.43 1 22.28-2.5-1.85-1.08-3.9-1.75-6.05-1.82-8.6-0.59-17.23-0.48-25.85-0.68-6.35-0.09-11.84-4-16.11-8.37-6.71-6.94-11.49-15.41-16.27-23.71-2.25-3.79-4.16-7.96-7.66-10.8m-129.94 5.32c-3.06 4.49-4.5 9.79-5.49 15.07 3.52 1.31 7.46 1.7 10.92-0.03-2.05-1.47-4.44-2.28-6.79-3.08 0.11-1.42 0.23-2.83 0.37-4.23 4.26-1.1 8.12-3.37 11.29-6.38-3.41-0.62-6.85-1.02-10.3-1.35m27.23 11.56c-7.09 5.52-15.09 9.86-21.87 15.76 6.92-1.86 13.15-5.65 19.04-9.63 5.78-4.21 11.43-9.11 14.65-15.63-4.09 2.97-7.66 6.61-11.82 9.5m162-4.5c0.58 7.63 0.66 15.29 1.05 22.93 4.28 0.08 8.56 0.11 12.84 0.07-4.42-7.79-8.87-15.59-13.89-23m-105.18 19.32c-0.79 6.56-1.01 13.19-1.87 19.76 3.6-7 9.36-13.15 10.4-21.2 1.02-4.9 2.09-9.78 3.03-14.68-3.54 5.59-7.62 10.82-11.56 16.12m-7.47-10.55c-13.78 26.57-32.8 49.86-51.27 73.23 0.61 1.47 1.22 2.96 1.83 4.45 7.43-7.31 13.97-15.46 20.44-23.61 11.87-15.32 22.64-31.59 31.05-49.07 1.21-2.41 2.36-4.93 2.33-7.68-1.77 0.3-3.67 0.83-4.38 2.68m52.13 2.18c2.08 16.22 9.27 32.11 21.32 43.36 6.55-5.13 13.07-10.32 20.05-14.87-7.64-1.33-15.28-3.43-21.93-7.54-8.41-4.89-14.79-12.52-19.44-20.95m-135.21 1.63c-0.35 1.91-0.68 3.82-0.98 5.75 5.9-0.86 12.18-2.01 16.86-5.98-5.22 1.2-10.65 1.92-15.88 0.23m213.97 20.55c0.19 2.98 2.77 4.8 4.73 6.7 2.69 2.29 5.21 4.83 8.14 6.84 12.56-0.77 24.26 4.54 34.85 10.7-0.52-1.27-0.95-2.66-2.13-3.47-8.24-6.8-18.2-12.04-29.01-12.82-5.85-1.97-9.66-8.85-16.58-7.95m-127.63 15.98c-8.82 31.67-23.03 62.33-24.98 95.54 5.45-5.47 10.63-11.21 16-16.77-3.97-22.2-0.45-45.26 7.81-66.09 3.5-8.43 6.98-16.93 9.19-25.81-2.84 4.25-5.89 8.47-8.02 13.13m123.17-6.83c-10.06 8.93-19.22 18.83-28.25 28.79-12.6 14.11-24.74 28.64-36.25 43.66-9.76 12.93-19.62 25.88-27.93 39.81 12.21-9.92 23.75-20.7 34.81-31.89 12.52-12.34 22.89-26.59 33.21-40.75 9.42-13.35 19.05-26.57 28.07-40.18-1.27-0.11-2.74-0.69-3.66 0.56m2.36 5.4c-4.77 8.2-10.35 15.91-14.56 24.43-9.77 18.29-20.55 36.16-33.83 52.14-3.09 4.53-4.77 9.85-7.24 14.72-26.42 57.95-51.42 116.56-73.86 176.16-14.55 39.41-28.74 79.15-37.68 120.27-0.92 5.2-2.63 10.47-1.76 15.81 1.59 11.84 3.26 23.68 4.88 35.52 5.59-4.28 11.96-7.48 18.58-9.84-4.67 5.09-9.64 9.91-14.1 15.19-4.14 4.89-8.68 9.76-10.69 15.99 0.5 0.6 1.5 1.82 2 2.43 5.97-3.1 6.98-12.22 13.99-13.78-2.5 6.09-6.42 11.47-9.23 17.42-2.24 4.87-5.42 9.62-5.46 15.17 4.69-1.39 8.86-4.0701 12.86-6.8101 1.26-0.77 1.85-2.15 2.5-3.39 17.63-37.03 33.32-74.96 47.74-113.35 31.54-84.59 57.56-171.2 79.07-258.86 4.4-18.62 8.98-37.22 12.28-56.06-2.2 3.75-3.59 7.9-5.44 11.83-4.13 9.8-8.94 19.3-14.34 28.46 12.74-29.59 26.28-58.86 38.77-88.55-2.34 0.7801-3.24 3.2101-4.48 5.1001m5.48-3.76c-0.27 1.6-0.38 3.29 0.46 4.76 2.1 5.21 4.52 10.28 6.52 15.54-3.44-4.15-6.43-8.65-9.62-12.98-1.18 2.26-2.24 4.59-3.26 6.93 4.77 8.22 10.49 15.88 15.1 24.19-6.03-6.37-10.88-13.76-16.56-20.44-2.99 6.41-5.99 12.85-8.52 19.45 2.75 18.76 1.82 37.81 1.36 56.7-1.58 42.41-4.66 84.76-8.32 127.04 5.66-8.97 15.26-14.1 22.94-21.07 1.27-54.11 2.3-108.23 3.52-162.34 4.84 5.03 8.67 10.93 13.49 15.98 0.43-9.8-0.58-19.73-3.59-29.09-1.42-4.72-3.7-9.14-4.87-13.93 1.14 0.55 1.93 1.41 2.39 2.59 5.06 11.95 8.33 24.83 7.95 37.89-0.36 22.91-6.41 45.25-12.92 67.07-0.3 1.48-0.5 2.98-0.59 4.5 3.24-2.38 6.24-5.06 9.55-7.34 8.42 6.77 15.62 14.87 23.01 22.72-5.79-11.6-14.35-21.56-23.11-31 10.28 2.87 16.89 11.94 23.16 19.94-1.41-5.89-2.38-11.91-4.29-17.65-3.44-3.14-8.41-3.09-12.58-4.6-0.11-0.39-0.33-1.17-0.43-1.57 2.37-3.54 6.34-5.48 9.89-7.61-0.42-7.29-0.47-14.86-3.34-21.69-2.03 7.81-3.27 16.05-7.47 23.09-1.06 1.95-2.98 3.14-4.84 4.21 1.41-6.53 3.87-12.81 4.82-19.45 3.94-19.73 2.42-40.44-4.03-59.47-0.99-3.02-2.4-5.91-3.03-9.03 2.85 3.43 4.33 7.72 6.44 11.6 13.59 26.55 26.22 53.57 38.14 80.9 1.57 0.12 3.15 0.23 4.73 0.35-2.78-32.82-17.91-63.94-39.77-88.3-6.5-6.9801-13.43-14.04-22.33-17.89m20.29 10.66c0.47 0.61 1.41 1.81 1.88 2.42 24.98 24.26 40.12 57.99 43.11 92.57 2.34 0 4.68-0.11 7.03-0.15-0.81 6.06-4.31 11.33-5.25 17.36 1.52-1.02 2.68-2.4301 3.46-4.07 3.92-7.55 7.07-15.64 7.91-24.17 2.84 3.89 4.47 8.76 3.77 13.6-0.99 7.54-5.73 13.98-11.11 19.09-2.53 2.12-3.79 5.61-3.25 8.87-0.02 1.4301 0.67 2.17 2.06 2.21 2.45-1.59 4.5-3.7 6.58-5.72 7.66-7.66 14.9-15.71 22.25-23.65-5.35-9.61-16.65-13.12-26.21-17.06-1.83-7.62-5.93-14.38-10.47-20.67-1.47-3.63-0.75-7.88-2.67-11.42-7.62-18.18-19.72-34.43-34.86-47.04-1.21-1.09-2.66-1.82-4.23-2.17m5.57 0.26c13.78 10.88 24.76 24.94 32.91 40.43-0.5-2.91-1.11-5.84-2.35-8.53-5.12-11.11-12.85-20.93-22.04-28.97-2.25-2.25-5.53-2.59-8.52-2.93m-209.32 38.52c1.17 2.57 2.52 5.06 4.11 7.4 5.86-10.21 12-20.29 17.56-30.67-7.42 7.57-14.45 15.51-21.67 23.27m28.48 5.77c-4.71 11.18-7.79 22.99-10.03 34.89-1.14 7.57-2.4 15.29-1.48 22.96 1.65-2.05 3.94-3.79 4.8-6.33 1.92-22.1 4.58-44.83 14.72-64.9-3.83 3.65-5.9 8.63-8.01 13.38m43.88 24.89c-23.99 30.65-43.85 64.62-58.14 100.84-1.44 3.35-1.79 7.03-1.86 10.65 2.55-4.3 4.75-8.8 7.47-13.01 2.12-3.53 4.8-6.73 6.49-10.5 5.85-13.34 13.03-26.04 20.46-38.56 17.98-29.8 37.89-58.41 58.86-86.17-12.1 11.28-22.99 23.82-33.28 36.75m137.28-31.89c1.38 6.01 3.43 11.85 5.09 17.79 11.89 44.4 22.57 89.1 33.22 133.8 1.51 4.59 5.06 8.14 7.15 12.47-2.06-14.68-1.54-29.63-4.59-44.17-4.15-21.94-11.39-43.15-18.95-64.11-7.03-18.7-14.18-37.37-21.92-55.78m-20.14 63.53c5.73-18.34 10.27-37.32 11.08-56.59-3.08-1.91-6.24-3.71-9.47-5.38-0.95 20.63-1.38 41.32-1.61 61.97m-24.03-40.55c-5.54 33.35-14.77 66.09-27.65 97.34-1.6 3.67-2.43 7.59-3.51 11.43-21.56 76.82-46.3 152.84-76.35 226.79-9.07 22.61-19.17 44.79-29.16 66.99 4.64-2.32 7.28-6.89 10.47-10.74 18.01-22.52 38.09-43.26 56.94-65.07 21-24.22 41.41-49.48 55.76-78.32 2.73-6.2401 6.61-12.32 6.83-19.31 1.6-21.02 3.14-42.05 4.66-63.06-1.95-5.3101-5.38-10.62-4.39-16.51 3.69-44.11 6.73-88.28 8.41-132.52-0.24-9.13 0.63-18.3-0.08-27.41-1.32 3.3099-1.26 6.9299-1.93 10.39m147.19 3.04c0 4.42 0.08 8.84-0.02 13.27-2.58-2.02-5.04-4.17-7.46-6.36-7.94 11.32-15.58 22.86-23.72 34.04-9 11.12-18.34 21.96-27.33 33.09 0.75 1.5 1.55 2.98 2.35 4.48 9.07-4.02 12.82-14.11 15.98-22.79 2.35 13.87-2.92 28.11-12.12 38.47-0.32 3.23 1.78 6.28 1.87 9.55-0.97 3.23-2.93 6.07-3.92 9.3 0.16 4.7 1.3 9.31 1.96 13.96 2.85 18.55 5.79 37.08 8.63 55.63 3.72 1.1801 7.47 2.32 11.26 3.29 14.17-25.24 28.49-50.42 42.76-75.61 1.64-2.27 0.2-5.05-0.28-7.46-0.53-3.36-3.89-5.11-4.97-8.19-0.59-2.01 0.07-4.07 0.57-6.01 1.06-3.84 1.28-7.85 2.28-11.7 1.71-0.04 3.42-0.05 5.15-0.06 0.12-2.83 0.61-5.64 1.74-8.25 3.2 1.39 6.54 2.66 10.1 2.39 3.68-0.58 6.33 2.3 9.19 4.06-0.61-4.3-0.45-8.87-2.49-12.82-1.18-2.55-1.91-5.34-1.92-8.15 0.65-2 1.85-3.76 2.92-5.54 3.45 3.13 6.7 6.48 10.14 9.64 4.38-6.44 8.6-12.98 12.91-19.46-2.14-0.8-4.3-1.53-6.42-2.34 2.39-2.42 4.83-4.81 7.14-7.32-18.76-9.7299-37.5-19.46-56.3-29.11m-223.7 48.47c-3.22 2.75-7.37 4.87-9.01 9.03-24.03 49.65-46.77 100.31-61.15 153.72-3.01 14.02-5.13 28.22-7.58 42.35-1.43 7.46-1.42 15.12-1.14 22.68 3.51-8 5.71-16.53 8.79-24.72 27.94-78.09 62.49-153.66 99.72-227.71-9.76 8.34-19.42 16.84-29.63 24.65m265.53 18.93c0.26-2.4 0.74-4.87 0.15-7.24-2.76-3.25-6.06-5.98-9.15-8.89-4.1 6.39 1.93 15.53 9 16.13m-166.07-11.84c0.34 1.38 0.19 3.11 1.55 4 4.97 4.35 9.85 8.95 13.37 14.59 2.02 3.08 3.24 6.58 4.83 9.89 0.2-12.49-8.43-23.83-19.75-28.48m-134.67 19.68c-5.08 3.27-8.17 8.59-11.73 13.3-12.12 17.12-21.89 36.08-27.52 56.34-1.12 4.18-2.33 8.46-2 12.85 1.49-1.84 2.72-3.85 3.82-5.92 17.18-31.58 37.99-60.96 57.32-91.21-6.8 4.64-13.12 9.96-19.89 14.64m134.77-8.1c-0.43 18.47-1.2 36.93-1.43 55.4 9.04-8.13 15.93-18.67 19.71-30.23 1.01-2.82-0.24-5.74-1.38-8.31-3.42-7.43-10.03-12.75-16.9-16.86m139.27 3.87c0.79 1.95 1.37 4.18 3.12 5.54 2.64 2.27 6.54 1.66 9.29 3.69 3.7 2.62 7.13 5.66 11.1 7.91 1.27 0.51 2.61 1.79 4.08 1.2 1.69-0.25 2.54-2.53 1.55-3.87-4.66-5.16-10.42-9.22-16.62-12.3-4.25-0.28-8.51-0.65-12.52-2.17m-269.6 19.66c-11.38 18.35-23.04 36.53-33.67 55.33-9.51 16.99-18.63 34.43-23.89 53.28-5.7 19.4-6.93 40.21-2.86 60.06 5.89-16.44 11.87-32.85 18.05-49.18 10.85-40.56 26.78-79.55 44.07-117.75 2.12-4.89 4.83-9.53 6.58-14.58-3.1 4.05-5.52 8.56-8.28 12.84m263.3-12.24c-0.04 1.76-0.27 3.57 0.06 5.34 2.46 3.01 6.67 3.18 10.2 3.94 2.84 6.15 8.06 11.28 14.56 13.41 1.48-2.01 2.42-4.33 3-6.74-4.44-4.07-8.51-8.54-13.13-12.39-2.88-0.7-6.04-0.42-8.66-2.01-1.8-1.18-3.91-1.55-6.03-1.55m-2.25 11.52c0.07 1.8-0.36 3.85 0.74 5.46 3.99 5.63 7.17 12.05 12.63 16.46 2.05 2.05 6.72 0.55 5.67-2.72-2.31-5.56-6.93-9.78-10.4-14.62-1.9-2.98-5.58-3.49-8.64-4.58m-107 10.71c-3.41 11.33-9.98 21.62-18.71 29.6 0.88 51.87 1.64 103.75 2.43 155.62 0.73 19.28 0.32 38.58 0.98 57.87 0.7 21.4 0.46 42.81 1.06 64.21 19.68-12.2 39.97-23.35 60.49-34.03-14.48-93.87-29.06-187.73-43.56-281.6-1.22 2.66-1.84 5.54-2.69 8.33m22.55 17.19c1.41 15.87 2.97 31.73 4.81 47.55 3.7-3.14 7.06-6.66 10.72-9.85-3.16-8.84-6.89-17.47-10.19-26.25-1.67-3.86-2.69-8.09-5.34-11.45m-65.99 36.47c-2.53 4.05-2.06 8.97-2.49 13.52-4.33 58.66-8.79 117.3-13.21 175.95-2.21 32.19-3.64 64.44-5.57 96.65 16.19-10.65 32.41-21.26 48.84-31.54-0.3-17.64-0.88-35.28-0.89-52.92-1.22-74.72-2.3-149.43-3.63-224.14-8.04 7.06-17.69 12.91-23.05 22.48m84.99 24.53c4.66 10.81 9.87 22.39 7.94 34.46-0.71 4.81-4.16 8.5-8.07 11.08 4.22 18.62 6.43 37.62 8.74 56.55 0.91 6.5 1.1 13.11 2.45 19.54 5.17 4.42 10.35 8.91 14.44 14.4-7.22-51.02-15.01-101.98-21.48-153.1-1.44 5.65-2.53 11.42-4.02 17.07m-131.28 124.14c-2.55 3.13-2.8 7.32-3.92 11.06-19.19 72.18-38.25 144.4-57.42 216.59-2.19 7.6699-3.74 15.55-6.41 23.07-0.69-0.14-2.07-0.4199-2.75-0.5599 16.61-63.9 33.98-127.62 50.56-191.53-6.02 5.8-11.57 12.06-17.43 18.02-1.73 1.96-4.05 3.69-4.63 6.39-15.72 63.31-31.53 126.59-47.22 189.9-0.4 2.54-2.83 3.8401-4.81 5.0801-7.48 4.61-17.3 4.48-24.74-0.15-0.79 3.45-1.87 7.09-0.89 10.63 0.64 2.3 2.56 3.87 4.13 5.5699-4.39 13.98-3.82 29.45-10.82 42.59-1.67 4.01-6.51 3.4399-9.85 5.12-5.1 2.25-11.04 5.3199-12.4 11.25 10.33 0.09 20.65-0.4701 30.98-0.3501 0.6-1.62 1.23-3.22 1.94-4.7699 3.09 0.1799 4.79 2.97 7.19 4.49 1.61 0.14 3.23 0.09 4.85 0.12 3.02-4.23 7.97-6.53 11.01-10.79-2.36 0.61-4.69 1.3201-7.05 1.92 3.95-13.67 8.94-27.06 12.6-40.8-5.26 11.22-9.57 22.88-15.12 33.98-2.96-0.33-6.36 0.2101-8.84-1.7999-3.51-2.79-4.51-7.51-5.06-11.72 3.81 2.9701 6.68 7.51 11.66 8.67 2.93-4.84 4.82-10.19 6.94-15.4 4.7-12.14 9.27-24.33 13.61-36.6-2.62 1.97-6.06 3.55-7.15 6.9-2.21 5.5499-4.13 11.22-6.48 16.72-0.42 1.25-2.04 1.25-3.11 1.63-5.43 1.25-11.31 0.1901-15.75-3.26 8.18-9.41 19.25-15.56 28.39-23.91 9.35-8.3199 19.07-16.3 27.53-25.53 3.06-3.0701 1.68-7.7001 1.93-11.54-0.09-5.02 0.54-11.31 5.58-13.87 15.15-7.89 30.36-15.68 45.48-23.62 8.3-5.3 16.44-10.86 24.65-16.3 3.74-59.37 7.39-118.75 9.74-178.19 0.2-8.69 0.61-17.38 0.3-26.07-0.15-4.79-3.55-9-8.07-10.43-5.99 9.4298-12.29 18.67-19.15 27.49m143.85 15.26c2.23 22.78 4.94 45.53 7.41 68.3 3.45 0.02 6.9 0.02 10.36-0.04-2.32-19.09-4.52-38.2-6.9-57.27-2.67-4.39-6.97-7.7-10.87-10.99m-256.74 107.83c-2.6 2.42-2.88 6.12-3.39 9.4301 3.6-4.03 6.53-8.6 10.19-12.58 3.97-4.6899 8.35-9.0101 12.41-13.61-0.64-0.4299-1.93-1.2899-2.58-1.72-5.78 5.9401-11 12.39-16.63 18.48m169.61 2.88c0.51 11.24 1.05 22.48 1.9 33.7 1.43-0.9901 2.85-1.9801 4.28-2.9601-0.63-10.24-1.25-20.48-1.93-30.71-1.42-0.03-2.83-0.03-4.25-0.03m-125.31 24.41c-12.5 39.41-25.69 78.6-37.88 118.1 3.33-2.25 7.34-4.5 8.1-8.83 13.58-42.02 27.49-83.94 40.98-125.98-4.33 5.08-9.55 10-11.2 16.71m-49.35-7.11c-2.91 25.42-3.82 51.08-2.35 76.64 0.95 11.18 1.57 22.79 6.44 33.1-2.41 2.48-4.76 5.03-6.82 7.83 0.27 1.5601 0.55 3.14 0.84 4.73 4.07-5.24 7.29-11.07 10.67-16.76 4.47-7.8999 9.07-15.76 13.16-23.86-5.46 5.3301-9.74 11.95-16.16 16.26-0.35-0.12-1.07-0.35-1.43-0.47-2.66-11.03-3.36-22.47-4.02-33.76 4.57-8.34 10.83-15.72 15.78-23.87-5.19 4.46-10.7 9.4401-17.89 9.9401-0.47-3.55-0.61-7.16-0.03-10.7 1.97-15.84 8.74-30.48 15.15-44.92-4.24 2.3899-8.55 4.74-13.34 5.84m142.82-2.02c-1.05 14.13-1.88 28.27-2.69 42.41 4.55-2.6801 8.91-5.6801 13.27-8.67-0.32-8.97-0.94-17.92-1.34-26.88-3.05-2.33-6.07-4.7-9.24-6.86m15.85 11.89c0.16 5.95 0.48 11.89 0.87 17.83 4.02-2.71 8.08-5.36 12.07-8.1-4.19-3.4101-8.53-6.63-12.94-9.73m43.43 18.01c-6.15 11.13-8.55 23.83-10.52 36.25-4.12 30.69-3.1 61.74-2.61 92.61-0.03 9.22 1.18 18.66-1.06 27.71-3.73-1.8199-4.79-6.09-5.79-9.73-4.74-21.41-4.14-43.51-3.41-65.27-5.25 15.49-6.35 32.22-4.18 48.38 0.99 8.14 3.21 16.04 4.73 24.08-7.78-6.0499-14.95-12.84-22.41-19.26-1.06 1.0399-2.12 2.08-3.18 3.1499 7.78 6.3101 17.07 11.42 22.6 20-10.57-7.98-22.83-13.49-35.42-17.46-0.05 1.6901-0.07 3.4-0.04 5.13 10.26 3.12 21.52 5.55 29.69 12.94-10.11-4.1599-20.74-6.8099-31.45-8.8999-0.29 0.5499-0.87 1.64-1.16 2.1899 5.01 1.61 10.31 2.3201 15.2 4.28-6.29 0.53-12.7-0.39-18.9 0.86-4.11 2.03-5.65 7.08-5.3 11.39 7.3 0.77 15.25-0.12 21.14-4.9 1.42 1.54 3.62 2.9501 3.54 5.33-0.41 1.5901-2.25 2.13-3.7 2.1901-7.33 0.51-14.65-0.41-21.96-0.6801-0.42 2.3601-0.71 4.75-0.99 7.15-6.71-0.2-14.43 2.01-20.04-2.85-3.69 1.48-7.2 3.42-10.3 5.91 26.84-0.2001 53.67-0.67 80.51-0.8301-4.48-1.5599-9.62-2.35-12.96-6.0299-1.6-1.64-1.6-4.05-1.84-6.16 5.26 2.29 11.08 3.09 16.63 1.3199 0.06-3.48 0.03-6.96 0.07-10.43 1.06 0.47 2.11 0.97 3.17 1.48-0.03 4.2-0.04 8.41 0.05 12.62 4.14 2.8199 9.15 2.97 13.97 3.11-0.22 1.33-0.45 2.6901-0.7 4.04 11.3-0.5701 22.63-0.24 33.94-0.6901-5.83-3.59-11.15-8.0699-14.95-13.81-3.05-0.02-6.1 0.11-9.08 0.74 2.52 3.13 6.34 4.84 8.85 8-1.5 0.79-3.08 2.23-4.91 1.5599-4.42-1.34-7.68-4.83-11.06-7.7699-1.66 1.71-3.14 3.7799-5.41 4.75-2.66 0.21-3.85-3.1901-3.7-5.3201 1.65-5.0599 3.62-10.03 4.78-15.23 6.34-26.7 8.97-54.08 11.7-81.33 2.14-25.41 3.95-50.85 5.15-76.32-3.12 1.4702-7.07 2.4003-8.69 5.8003m11.85-4.8001c-0.32 8.88 0.71 17.74 0.84 26.62 0.37 7.37 0.16 14.77 0.98 22.12 1.4-9.66 0.8-19.46 1.55-29.16 0.34-6.5 0.84-13.01 0.68-19.51-1.35-0.04-2.7-0.06-4.05-0.0701m26.84 21.92c-2.61 10.49-2.53 21.42-3.35 32.15-1.75 37.84-2.34 75.73-3 113.61-0.42 5.85 3.74 10.85 7.99 14.38 2.68 2.46 6.51 1.3199 9.77 1.58-4.09-4.05-7.78-8.59-10.97-13.34-1.08-7.12 0.16-14.41 0.4-21.57 2.86-40.37 6.55-80.67 10.38-120.95-3.18-2.8699-6.85-5.3699-11.22-5.8599m-11.81 12.77c-4.05 6.95-2.51 15.29-3.54 22.94-2.13 36.34-4.63 72.66-6.62 109.01 1.81 6.26 6.92 11.16 11.89 15.2 2.74 2.7301 6.8 1.74 10.28 1.8501-4.88-3.4301-9.28-7.9801-11.98-13.22 1.93-43.92 4.74-87.85 5.44-131.82-0.12-3.11 0.19-6.39-1.34-9.21-1.58 1.57-3.12 3.24-4.13 5.25m-122.39 26.74c-5.21 21.45-10.3 42.94-15.4 64.43-1.59 6.78-2.45 13.73-4.51 20.41-3.37 11.85-8.19 24.1-17.83 32.29-4.17 3.2899-9.2 6.2-14.66 6.22 2.96-2.35 6.51-3.9501 9.07-6.79 6.23-6.72 10-15.27 13.13-23.78 6.96-20.17 9.81-41.48 11.67-62.65 0.43-2.2201-1.55-3.6901-2.64-5.3201-1.3 11.92-4.37 23.54-7.67 35.03-2.77 18.05-5.67 37.69-18.71 51.55-1.22 1.63-3.09-0.03-4.57-0.28 6.39-8.0701 13.02-16.4 15.79-26.51-1.49 1.52-2.78 3.25-4.03 4.99-8.11 11-18.92 20.29-31.82 25.13-3.02 2.8099-4.86 6.6799-7.62 9.76 5.26 0.08 10.52 0.16 15.77-0.22-3.32-1.5-6.83-2.5-10.09-4.1001 0.8-1.4299 1.34-3.86 3.23-4.0199 4 2.84 8.01 5.75 12.29 8.1399 10.99 0.4301 21.99-0.4199 32.99-0.24 1.86-0.1699 4.14 0.3301 5.57-1.21 9.66-8.9399 15.35-21.27 19.4-33.58-3.15 4.84-5.72 10.07-9.5 14.5-5.66 7.1599-13.07 13.02-21.69 16.2-0.64-1.3099-1.27-2.6-1.9-3.87 4.01-2.11 8.5-3.9 11.46-7.46 7.11-17.25 13.07-35.11 16.31-53.53 1.77-8.6801 1.98-17.86 5.69-26.01-2.07 22.33-5.4 44.63-11.15 66.34 6.63-10.85 11.08-22.88 14.75-35 2.19-8.3099 4.89-16.61 5.28-25.25 1.05-15.4 1.04-30.87 0.36-46.29-3.01 3.66-6.79 6.8801-8.97 11.12m-10.44 11.42c-1.83 1.79-1.37 4.51-1.6 6.8401-0.3 10.43-0.75 20.85-1.89 31.22 1.83-5.28 2.86-10.78 4.19-16.19 2.3-10.26 5.04-20.43 7.22-30.72-2.81 2.7901-5.37 5.8201-7.92 8.85m-28.68-5.0399c-1.1 5.58-1.58 11.25-2.24 16.89-0.94 6.7-7.51 10.04-10.82 15.4-0.71 5.51-0.15 11.12-0.99 16.63-0.5 5.76-1.86 11.41-2.45 17.16 1.11-2.0601 2.01-4.21 2.85-6.37 7.69-19.34 16.37-38.31 23.6-57.82-3.05-1.7301-6.53-2.04-9.95-1.89m1.67 34c-6.21 18.91-12.99 37.82-22.96 55.13-3.21 5.8199-8.01 10.65-10.66 16.81 7.3-5.87 14.55-11.85 21.46-18.16-2.82 1.7101-5.47 3.7001-8.43 5.1801 1.72-4.4301 5.13-7.85 7.71-11.75 14.65-20.89 22.55-46.04 24.48-71.35 0.4-2.42-1.08-4.49-2.15-6.49-3.61 10.05-5.88 20.55-9.45 30.63m183.28-6.0801c-2.52 23.24-3.64 46.59-4.5 69.94 0.24 6.13 2.46 12.61 7.21 16.72 1.89 1.83 4.7 1.05 7.06 1.25-2.05-7.8199-2.37-15.91-3.08-23.91-1.83-26.05-3.2-52.13-4.82-78.19-1.04 4.6698-1.33 9.4498-1.87 14.19m-208.22 10.31c-4.54 18.11-6.48 36.71-9.62 55.08 3.3-5.4 5.36-11.42 7.49-17.33 4.49-13.82 7.24-28.25 7.99-42.76-2.02 1.5599-4.36 2.89-5.86 5.01m5.59 13.39c-4.02 22.86-11.59 46.6-28.84 63.01 1.37 0.96 2.72 1.95 4.06 2.97 6.27-7.67 11.72-16.13 15.3-25.41 2.26-5.78 5.02-11.39 6.54-17.43 3.58-13.39 5.89-27.27 5.46-41.15-1.76 5.8399-1.24 12.06-2.52 18.01m9.02 34.55c4.43-3.3199 8.78-6.9 12.59-10.9 1.68-4.6799 2.48-9.6299 3.38-14.49-3.86 9.3201-9.29 17.85-15.97 25.39m123.14 24.91c0.09 1.8199 0.17 3.66 0.25 5.51 2.98 0 5.96 0.0699 8.95 0.0599-3.17-1.6899-6.4-3.2999-9.2-5.5699z"/>
	<path d="m102.36 1219.7c4.79 3.4399 10.64 5.6699 16.57 4.22-1.37 3.09-2.56 6.5699-5.48 8.5699-1.96 1.3301-4.78 0.79-6.24-1.0199-2.86-3.28-3.94-7.63-4.85-11.77z"/>
</g>
</svg>