<?xml version="1.0" encoding="UTF-8"?>
<svg viewBox="0 0 399.99979 200.00037" xmlns="http://www.w3.org/2000/svg">
 <path d="m74.90143,199.94475c-.54587-.20634-.97137-.15317-1.55884-.29912-.6432-.0188-1.18845-.0378-1.79826-.0447-.24973-.0791-.63642-.15023-.85932-.15811-.53305-.18616-.96638-.57952-1.48679-.89374-.34174-.25888-.72912-.43169-1.0959-.62486-.629.15583-1.23061.0437-1.87506.0698-1.21812.0417-2.37986.38915-3.62312.45249-.24331.32804-.64457.61335-.98045.89812-.21001.0359-.40089.0199-.46557-.039-.15692-.14293-.1196-.62537.0672-.86824 .0844-.29258.30888-.47979.46467-.72179 .1762-.44074.47866-.60624.75562-.98232 .0387-.14061.15888-.36878.26696-.50704 .37081-.47434.16643-1.00735-.33218-.86627-.12845.0363-.35495.14392-.50332.23907-1.05643.11046-1.81357.46288-2.91303.69029-.58083.0783-1.18011.30359-1.70953.4547-1.11157.74279-2.463,1.08964-3.76423,1.44514-.44949-.10949-.40937-.33454.109-.61124 .25224-.13465.48692-.32599.52149-.4252s.23548-.2606.44647-.35864c.68797-.90629 1.5523-1.61221 2.34563-2.41062 .70877-.59999.82043-.78938.58946-.99976-1.5175.24203-2.94674.92552-4.48924,1.27748-.44237.34722-.93716.57886-1.42623.86403-.66184.28103-1.23651.64924-1.82091,1.05431-.26654.30331-.57718.2797-.57633-.0438 .00082-.31403.22499-.62499.78697-1.09167 .21296-.22904.43828-.44092.64219-.64606 .33078-.0942.13105-.49792.19438-.73853 .0103-.0509.0197-.43672.0208-.85734l.002-.76475 .52301-.39639c.28765-.21802.69844-.4779.91285-.57751 .31861-.21535.63192-.41585.95171-.6263 .0946-.1411 1.3425-.52683 1.70432-.52683 .36978,0 .71012-.49141.92265-1.33222 .12996-.5142.23554-.74263.35651-.77145 .0945-.0225.27048-.16243.391-.31091 .76873-.15716 1.2438-.73212 1.78342-1.25287 .0825-.10783.28981-.22151.46063-.25263 .49463-.32967 1.2101-.89117 1.50624-1.15234 .82076-.18473 1.45443-.82521 2.10273-1.31536 .22292-.0378.50965-.45178.98445-.70828s1.33557-.66812 1.95355-1.05017c.77804-.50353 1.38042-.5548 2.22788-.61184 .23337-.0387.63797-.0608.89908-.049 .89306-.13011 1.74875-.39593 2.64145-.54894 .35427-.0987.89565-.17867 1.20308-.17768s1.58798-.0301 2.84566-.0691c1.05889.0884 2.08529-.14942 3.07938-.34497 .99724-.29751 1.86396-.86017 2.71356-1.44031 1.03219-.5986 1.62134-1.66376 2.43913-2.51052 .16415-.50806.46147-.95218.70942-1.42025 .2676-.57376.65505-1.10163.99121-1.62163 .12316,0 .89074-1.68064.85619-1.87463 .36501-.33813.55493-.83854.8152-1.29607 .28867-.46433.41823-.95205.6752-1.45784 .37583-.55959.80364-1.09879 1.25107-1.5737 .19474-.24521.51447-.51126.74807-.77382 .15237-.58998.61332-1.05383.94074-1.51067 .2288-.0733 1.03802-.87248 1.04011-1.02721 .43127-.36649.7961-.85141 1.16327-1.30809 .90135-1.4442 2.23531-2.53423 3.31148-3.80495 .11646-.2534.22841-.42001.35195-.64719 .0826,0 .2312-.11392.3303-.25317s.32883-.37266.5105-.51873c.12673-.26186.40537-.37746.55897-.52048 .64117-.0828 1.01836-.95575 1.54441-1.46911 .0346-.0994.15372-.2024.2646-.22881 .49513-.32899.49189-.86168.65137-1.35322 .14208-.73438.40277-.77329.96075-1.2064l.58074-.65679c.13266-.0459.2412-.14873.2412-.22842 .54027-.92994 1.09578-1.24858 1.57453-2.07738 .0623-.33595.0991-.37578.32665-.35331 1.14743-1.08549.95394-1.63513 1.23412-2.24268 .91281-.40553.75496-1.44522.82359-2.40491 .55667-.622.83069-1.37201 1.07182-2.13105 .16686-.206.25408-.43541.25408-.66827 .46456-.49681.48012-1.07449.64916-1.646 .17775,0 .89631-1.62022 1.14953-2.59198 .42136-.40938.52248-1.027.53138-1.53557s.21987-1.21985.37528-1.85261c.26199-.63505.32012-1.27009.3803-1.95614 .24267-.59049.39464-1.21187.57918-1.79148 .45267-.70843.51373-1.4939.57901-2.31857 .11237-.82536.36749-1.39361.29059-2.00609 .17655-.0229.22598-.11129.27553-.49243 .0332-.25545.0363-.57611.007-.71259-.0472-.21916.14507-.72734.46177-1.22014 .2838-.74322.50555-1.53.716-2.28633 .6348-.98752.85003-2.11255 1.20899-3.4263 .18885-.16365.33512-.9247.32727-1.70273 .0785-.40258.39976-.71244.66944-1.05073 .0969.0574.17925-.13638.26888-.20457-.21655-.0717-.73509-.58539-.74115-.73421-.002-.0558.15594-.25164.35158-.43512 .51699-.4425.10942-.45536.20149-.83851 .0457-.73945.34261-.86819.5677-1.41383 .12638-.21509.12025-.25495-.0602-.39152-.069-.41299-.42264-.57163-.63288-.85597-.5341-.28644-1.16404-.39545-1.75248-.54551-.12292-.0599-.27544-.0193-.53801.14319-.41732.2583-.7578.28795-1.04382.0909-.2804-.19318-.62901-.1732-.75624.0433-.31637.26449-.65871.53079-.99781.78685-.15234.30452-.37202.29375-.51714-.0254-.15801-.34749-1.01158-.82001-1.22586-.67862-.45967.12466-.59992.54493-.8873.86598-.0883.18008-.17906.20829-.67045.20829-.50354,0-.6072.0343-.90916.30085-.21368.18862-.44328.30086-.61547.30086-.2126-.27272-.61876-.48701-.88187-.74057-.60963.25532-1.02039.75194-1.42538,1.24971-.26909.26089-.62229.29939-.84934.0926-.20358-.18543-.56404-.17645-.64514.0161-.1711.40612-.41005.50069-1.10199.43612-.56241-.0525-.65212-.0852-.60486-.22087 .11443-.3284-.70008-.79092-1.01841-.5783-.17132.11443-.35354.56773-.35519.88362-.00086.16307-.0366.34668-.0794.40803-.0855.12249-.68034.0873-.86996-.0514-.0639-.0468-.26167-.11335-.43945-.14795-.38935.15049-.75506.14321-1.18435.25753-.60446-.0514-.6606-.0389-.98945.21966-.19174.1508-.50099.35399-.68721.45155-.31163.16324-.33383.2048-.27875.52192 .0515.29632.0245.36565-.19253.4952-.13883.0829-.42301.15691-.63153.16458-.3554.0901-.53726.29786-.83407.46242-.41365-.30555-.37207-.24278-.7401-.48293-.13013.0653-.31634.10756-.41378.094-.51954.53079-1.19122.86525-1.81428,1.18665-.65007.004-.78064.0941-1.0902.75191-.24912.52943-.67015.73038-1.17906.56276-.53805-.17722-.77-.1416-.77.11823 .20645.40444.15872.83359.19934,1.29541 .10812.42519-.0101.70032-.30097.70032-.26315,0-.40652-.27128-.40652-.7692 0-.22609-.0286-.54126-.0635-.70036-.0562-.25593-.10336-.28928-.40904-.28928-.26126,0-.36962.0508-.44439.20828-.0544.11456-.15336.27751-.21997.36211 .0654.62971-.067,1.20193-.13268,1.81581-.0252.51688-.13556.66455-.49857.66722-.17951.001-.18882-.056-.1341-.82522l.0588-.82662c-1.28713-.28576-1.32888.0803-1.15506,1.24414 .13951.25047.25385.56996.25408.70997 .00037.22056-.0398.25457-.30089.25457-.1973,0-.33886-.0639-.4101-.18514-.0598-.10183-.19344-.18514-.29692-.18514-.14494,0-.20382.0952-.25637.41441-.0851.51709-.20108.58562-.57019.33706-.35723-.24058-.77425-.25737-.84542-.034-.0284.0891-.0823.40027-.11982.69151-.0749.58206-.14587.66766-.62103.74952-.39492.0681-.58692-.0923-.39569-.33055 .0715-.089.10804-.26618.0813-.3937s.002-.28748.064-.35548 .13269-.44494.15718-.83764l.0445-.71402-.27226.019c-.53293.19522-.64585-.29458-1.0416-.47509-.37625-.17484-.46395-.18195-.97013-.0788-.63214.12885-.76265.24019-.4925.42012 .52533-.0563.63746.0321 1.09995.0554 .0417.14389-.001.25122-.13919.34714-.17951.12485-.18748.1762-.079.50914 .0664.20366.2186.51608.33828.69428 .27885.41516.42692,1.62005.20846,1.6964-.28995.10136-.45449-.15523-.50205-.78292-.0256-.33767-.0997-.70451-.16479-.81521-.12761-.2172-.48576-.37817-.68658-.30859-.23141.0802-.24938.60862-.0413,1.21524 .22437.6542.20395.80312-.12092.88222-.29351.0715-.47572-.15992-.47572-.60412 0-.28571-.0607-.39009-.33989-.58402-.19069-.13248-.47441-.23614-.64634-.23614-.29142,0-.30504-.017-.27797-.34714 .0157-.19093.0576-.41467.0932-.49721-.0525-.50249-.58158-.57901-.84579-.77463-.0668.0608-.19824.96431-.21052,1.44707-.01.38363.18676.51351.50395.33308 .30732-.17482.55063.0165.57366.45104 .0105.19788.0635.54665.11777.77505s.0613.47903.0155.55695-.027.23429.0565.37157c.15239.25076.20022,1.20191.0605,1.20191-.0476,0-.22629-.0444-.39718-.0987-.35741-.11349-.46452-.37219-.37209-.89873 .0913-.51994-.10986-1.08624-.46841-1.31879-.30211-.35054-.39628.11322-.67151.19186-.36425.12614-.32144.61966.1155,1.33133 .29907.48713.3557.67004.3557,1.14903 0,.53812-.0134.56967-.24163.56967-.3349,0-.50771-.22067-.43438-.55463-.18553-.38411-.70836-1.24698-.84845-1.42905 0-.14653-.44753-.79344-.54889-.79344-.30371,0-.41081.26792-.28219.70595 .0861.29332.0905.46664.0152.59493-.13392.22795.0219.80014.30812,1.13162l.87027,1.21193-.19186.35319c-.10551.19426-.23021.35321-.27709.35321-.12213,0-.40167-.38543-.40167-.55383 0-.20936-.48491-.64959-.71553-.64959-.17176,0-.19914.065-.19914.47264 .0888.65515.18374,1.31553.28484,1.96639l-.0308.38437-.40911-.0291c-.40739-.0289-.40963-.0273-.53316.39342-.0682.23237-.1688.4225-.22348.4225s-.17498-.13311-.26734-.29579c-.14135-.24898-.1498-.36731-.0534-.74763 .2496-.98496.11041-1.37044-.42758-1.18412-.55801.19323-.67909.75418-.30626,1.41873 .22059.39316.30257,1.66346.11644,1.80416-.11714.0885-.18801.0861-.33447-.0114-.14353-.0956-.18888-.25856-.19921-.71585-.0112-.49439-.11579-1.05811-.32115-1.7305-.0259-.0847-.1415-.10222-.39207-.0594-.30469-.34876-1.02085-.18098-1.02593-.18188 .0377.13684.0152.29623-.0523.37028-.0136.10958.33916.27334.53965.43491-.22979.2681-.21662.55868.0378.83409 .18912.20471.24639.36088.22356.60953-.0267.29033-.0641.33312-.28478.3253-.13974-.005-.33411-.0407-.43193-.0793-.16957.082-.33792.88444-.37917,1.06033-.24721,0-.37083.36611-.21384.63329 .12483.21247.15085,1.18436.0335,1.25043-.0422.0238-.19968.0218-.34988-.004-.26391-.046-.27139-.0642-.22277-.54365l.0503-.4961-.37343-.14211c-.6817-.25944-1.01155-.11568-.7512.32742 .16181.2754.25742,1.9373.11145,1.9373-.0595,0-.15718-.0833-.21701-.18515-.25014-.4257-.6327-.10714-.70989.59113-.0438.39584-.0857.47344-.2556.47344-.22879-.25249-.34443-1.10141-.40653-1.4117-.11179-.0127-.30611.0499-.43181.13918-.0669.54963-.32228,1.27634-.45762,1.67236-.20757-.0268-.23126-.0868-.25855-.65441-.022-.45791-.0677-.62485-.17101-.62485-.1553,0-.2067.12151-.31261.73905-.0755.44042-.48343,1.01979-.71796,1.01979-.21292,0-.1743-.55462.0743-1.06642 .18223-.46972.19496-.99646.24184-1.49168 .20175-.43979.0988-.6647-.34063-.74443-.29484-.0109-.57886-.0792-.86664-.11863-.38847-.20368-.31848-.685-.40976-1.07574 .17357-.45389-.45246-.29245-.70582-.45621-.40253-.54605-.8097.20493-.91667.232-.0506.28798-.10992.37028-.26707.37028-.1802,0-.20206-.0629-.20206-.58111 0-.64311-.16151-.94752-.57956-1.09229-.14861-.0515-.23266-.13901-.2024-.21084 .09-.21374-.10276-.39597-.30747-.29057-.0995.0512-.38675.0919-.63829.0903-.4538-.003-.45708-.005-.42426-.30145 .0278-.25074-.00097-.29861-.17924-.29861-.42258.25762-.69051.0324-1.0879.0496-.37483.0964-.90228.0732-1.15696-.051-.50347-.34807-.48193.35235-.66564.48667-.0674.0614-.65124-.22215-.65221-.31674-.001-.13112-.32826-.35375-.51947-.35375-.10969,0-.33355.12497-.49747.27771-.34999.32612-.80355.37704-.88333.0992-.0353-.12287-.17665-.19782-.4535-.24043-.33425-.0514-.46662-.0213-.78314.17854-.45574.13659-.96562.35664-1.36475.47931-.12152.21125-.20708.24134-.74007.26029-.91426.0325-1.30047.30299-1.76414,1.23558-.0974.19584-.14468.20412-.85376.14953-.89461-.0914-1.29513.66212-2.15978.98542-.50981.0459-.78273.44328-1.05895.68558 0,.29152-.0349.32613-.46311.45903-.64084.19889-1.35807.62898-1.36253.81706-.005.21816-.0519.23379-1.07571.35994-.65055.007-1.19168.3101-1.74642.54808-.18481.19661-.81934.259-.99781.0981-.0603-.0544-.3624-.0197-.80576.0926-.88028.22294-1.23231.22748-1.36457.0176-.39718.0521-.98794-.0354-1.44369-.0638-.1805-.13835-.48145-.24691-.7769-.28024l-1.21219-.15018c-.40146-.0527-.92588-.0982-1.16539-.10123-1.04868-.0259-1.82269-.32095-2.67965-.90881-.89364-.0368-.63252-.40075-.99119-.96045l-.58248-.35025v-.67444c0-.49626-.047-.73294-.17786-.89586-.36885-.45922-.43193-.65251-.43193-1.32356 0-.68325.002-.68965.27949-.71868 .25873-.0271.28593-.0705.36644-.58472 .10155-.64868.10221-.74035.008-1.11085-.37966-.46946-.76311-.96012-1.17482-1.40103-.26998-.26175-.18592-.49667.17773-.49667 .18499,0 .39059.11422.63838.35465 .20102.19506.44553.38121.54335.41366 .16913.48881.69228.33948.98804.48454 .17348-.70869.11446-1.48584.0636-2.20303 .22537-.2053.95825.71355 1.2346,1.54789 .16733.50518 1.34761.97975 2.04191.82103 .20267-.0463.23107-.0984.18723-.34325-.0284-.15875-.11251-.44485-.18687-.63578-.11899-.30555-.17512-.34714-.46854-.34714-.27009,0-.35351-.0483-.43955-.2544-.23098-.23422-.26053-.58924-.37301-.84365-.15879-.0904-.176-.93188-.0291-1.42475 .11597-.39738.46623-.61141.69662-.91353 .0192-.15024.12575-.28067.28242-.34569 .57646-.6139 1.16542-1.13192 1.70739-1.67498 .39789-.15535.46974-.21666.37534-.32027l-.49526-.15636c1.0308-.85859 1.65195-1.76656 1.87521-3.04573 .0343-.43438.007-.65176-.0987-.78171-.36806-.2034-.97934.11116-1.4279.21942-.81672.36393-1.36378.95434-2.19847,1.35115-.33486.25115-.71638.52073-1.07054.75082-.65221.66831-1.50725,1.09029-2.24312,1.64645-.32951.14857-.70819.34644-.8415.43971-.86585.29065-1.72559.5575-2.61545.76679-.31951.0832-.56565.45478-.70896.57 .0333.12174.0887.33589.12313.4759 .17259.27089.26187.56819.39482.85665 .0422.22757.13918.57495.21549.77198s.11351.39543.0826.44093c-.0924.13621-.4525.0935-.51777-.0615-.60603-.22042-1.10517-.66544-1.60426-1.11845-.16048-.29568-.51961-.41837-.76775-.61816 0-.15175-.55305-.61346-1.01631-.84845-.19564-.0992-.58437-.21023-.86386-.24664s-.6398-.0958-.80069-.13193-.67822-.0111-1.14959.0557c-.82994.1176-.88174.11392-1.63843-.11632-.42978-.13076-1.0558-.29023-1.39118-.35436-.58061-.24381-1.12868-.39634-1.73152-.56828-1.39207-.24732-2.55339-.7736-3.67309-1.61162-.2336-.21809-.60391-.47979-.82293-.58156s-.4678-.28178-.55285-.40002c-.19949-.27732-.37898-1.0427-.27905-1.18997 .13899-.20485.40264-.0169.40264.28697 0,.24438.0338.28265.22763.25747 .34499-.0448.35358-.35498.0166-.59973l-.28682-.20832 .24872-.0838c.15649-.0527.31014-.0489.41436.0104 .2364.13448.48048.02.55813-.26181 .10205-.37036-.0638-.44985-.63303-.30342-.34768.0894-.50385.18066-.52926.30913-.0617.31189-.20595.36581-.31024.11595-.0885-.21192-.16308-.23906-.75115-.27317-.62707-.0289-1.15611-.36042-1.70068-.64393-.4059-.29371-.81835-.60949-1.18792-.96672-.4649-.2864-.84296-.99337-.84296-1.57631 0-.33441.063-.46402.37693-.77498 .32859-.26738.6464-.51974.98267-.77929 .3756-.12138.68079-.4461.9779-.64078 0-.0722.40238-.27057.94816-.46734 1.05466-.38022 1.45886-.72052 1.34529-1.13267 .27521-.60235.84669-1.04183 1.30752-1.48063 .56902-.54427 1.06597-1.18919 1.53137-1.85682 .44371-.1625.71564-.89925 1.06712-1.38308 .91041-.66801 1.33663-1.45778 2.14798-2.24254 .25549-.41025.60775-.73393.90094-1.09468 .22549-.49775.59381-.9479.9124-1.38486 .004-.16171.35493-.40778.5822-.40778 .2637,0 .41743-.16828.50088-.54834 .33366-.47709.82457-.94642 1.17575-1.39564 .13565,0 .24674-.11089.34927-.34862 .56801-.63662.98095-1.41371 1.52302-2.03129 .41544-.47331.81737-.92597 1.20675-1.41549 .41256-.47384.67727-.89109 1.01509-1.38857 .0815-.12728.21865-.36681.30475-.53228 .4335-.36587.56977-.84723.82627-1.33983 .41089-.7891.57383-1.2586.55746-1.80399 .19226-.35758.18633-.76743.24742-1.01905-.14704-.075-.49317-1.66177-.39435-1.80794 .19555-.12866.27591.18721.44339.30085 .4873-.19-.19586-.71521-.2535-.9257-.22374,0-.19111-.12193.0991-.37029 .30071-.25731.31512-.37697.0762-.63278-.11909-.12752-.32898-.20059-.63519-.22117-.52416-.0445-.7223-.53395-1.01965-.91412-.31109-.34409-.55165-.85542-.76612-1.16371 .0387-.14405.0973-.38685.13028-.53957 .0264-.602.34889-1.08955.54676-1.57641 .38144-.37824.65333-.9237.90547-1.41924 0-.0721.25153-.47186.55896-.8884 .35141-.38926.5249-.87061.77324-1.31618 .0617-.54051.35576-.85986.54683-1.35147 .20728-.63577.41367-.9003.70244-.9003 .77388-1.64549 1.70513-3.20133 2.49839-4.86089 .53285-.99532.91163-1.34591 1.31021-1.94944s.651-.83846.92732-1.50048c.11089-.32247.35712-.58087.53522-.87057 .4001-.11127.66988-.44123 1.01714-.64857 .15358-.0203.23824-.11662.28448-.32383 .56372-1.07024 1.64245-1.78879 2.30668-2.72346 .287-.27423.60842-.63238.90774-.92433 .16639-.96803-.15533-1.89849-.43562-2.81376-.13147-.18275-.15378-.34413-.0996-.72003 .0384-.26648.0854-.62452.1045-.79567s.11753-.45131.21881-.62262c-.003-.72914.135-1.33196.24353-1.88732 .17183-.58884.39204-1.16882.63873-1.7755 .0906-.0825.17336-.44513.21948-.96161 .0574-.64236.12061-.87502.28071-1.03273 .18985-.33396.32921-.69942.48583-1.0684 .49335-.73132 1.27284-1.45697 1.79339-2.35143 .26271-.36139.63597-.58176.95541-.8744 .41061-.25392.92227-.55226 1.49049-.53686s1.37547.32245 2.01534.42718c.25272.25695.65045.79566.71918.97408 .52097.21831 1.08993.48497 1.60414.76105 .675.42567 1.24841.97222 1.76295,1.47133 1.13306.66021 1.66088.95427 2.66656,1.25516 .5333.11047.89637-.21497 1.33176-.45585 .12795,0 .61315-.11286 1.0782-.25081 .49459-.18199 1.24082-.15011 1.55331-.16204 .65946-.18163.93175-.71328 1.26708-1.03079 .0735-.23962.30445-.27946.45785-.42026 .2806-.0891.29915-.12446.27948-.53289-.0131-.47329.31277-.8538.53854-1.24371 .13332-.47865.35365-.94216.5457-1.40461 .13704-.46395.46776-.71705.73598-1.04367 .37562-.60273.77178-1.15027 1.07935-1.78224 .18097-.17682.37571-.40301.43274-.50263 .69797-.55582 1.10485-1.03485 2.02408-1.46506 .68542-.27001 1.22602-.75468 1.77864-1.22039 .72287-.071 1.58187.23395 2.40895.31788 .19306.1544.43507.28072.53782.28072 .79461.32759 1.47598.81799 1.97296,1.23763l.46887-.0585c.00031.72095.43527.71811.87934,1.12233 .16306.0687.25347.26392.3913.84494 .15816.66676.21688.77703.49935.93774 .49474.28147 1.5624.0761 2.14018-.4116 .25533-.21554.83494-.44808 1.4067-.56435 .3097-.20223.38221-.61004.58438-.93273 .49368-.33087.77028-.61642 1.0984-1.13074 .25574-.29035.35949-.37613.59669-.62432-.40152-.0797-.29393-.2434.30469-.46363 .47245-.48532.86034-.13269 1.30318-.17533 .15227-.0532.1546-.19785.013-.80956 .36954-.64649.99903-.73446 1.56674-.98703 .51653,0 .91021-.19133.91021-.44237 0-.063.0693-.13882.15397-.16843 .85641-.69271 1.71127-1.39216 2.5434-2.12376 .0536-.11093.16607-.2099.24991-.21992s.50688-.0451.94008-.0779c.78642-.0596.94234-.15183.61967-.36674-.24166-.16096-.0908-.3097.43673-.4307 .25966-.0596.48152-.17039.50946-.25452 .68936-.6985 1.59202-1.13617 2.39982-1.67798 1.22317-.57003 2.33442-.71796 3.36355-1.58327 .47686-.1922 1.01022-.53781 1.38352-.77635 .27013.0781.93726.0828 1.1945.008 .42183-.28066.73656-.7129 1.06813-1.09649 .097-.40196.49057-.5057.69504-.71648 .0698.44654.66181.34189.89003.45979 .0423-.11382.21534-.26597.56404-.49591 .22308-.255.44784-.48658.67265-.73085 .0203-.31798.492-.17363.54888-.1937 .0296.0701.18811.12753.35235.12753 .23251,0 .38971-.0991.7101-.44766l.41149-.44768 .55484.0419c.52168.0394.55688.0288.58887-.17718 .0221-.14226.11186-.22919.25599-.24788 .1515-.0196.24286-.11548.28781-.30193 .13621-.56485 1.16834-1.00109 1.29821-.54871 .0292.10183.12789.18514.21924.18514 .16294,0 .71629-.31427.91891-.52189 .12712-.13026.92983-.23442 1.69161-.2195 .50784.01.59682-.0169.78764-.23789 .11832-.13701.21512-.32893.21512-.42649 .59105-.5049 1.51365-.74969 2.2774-1.03259 .34572-.17009.74979-.33695.89791-.37082 .94814-.56986 1.76392-1.34967 2.59189-2.0519 .054-.088.43066-.19639 1.01354-.29178 .73285-.11995.93786-.18772.97666-.32288 .0279-.097.14037-.17107.25995-.17107 .13964,0 .23219-.0775.27406-.2294 .0815-.29566.53463-.5107.82636-.39212 .2978.12103 1.03278-.18031 1.10831-.45441 .0715-.25928 1.03669-.71935 1.21942-.58122 .60136.03.91985-.86654 1.05505-1.13409s.0879-.32209.43012-.55176 .78445-.33586 1.36118-.43224c.91187-.0434.93993-.0517 1.36126-.40254 .2366-.197.48743-.35819.55739-.35819 .44088,0 1.26994-.51553 1.26994-.78968 0-.0624.0686-.16521.15245-.2286s.15245-.19345.15245-.28904c0-.10645.0718-.17381.18521-.17381 .17098,0 .72946-.64421.72946-.84144 0-.0463.0879-.0843.19537-.0843 .13318,0 .23276-.10315.31278-.324 .12498-.34493.15803-.36026.71328-.33108 .51855.0273.87413-.12691 1.13786-.49337 1.50978-1.2281 3.00721-2.01055 4.65321-2.76544 .25154-.25196.63415-.56106.85026-.68689 .52054-.59456 1.23847-.82942 1.91077-1.10774 .5727-.10882 1.13638-.34602 1.68662-.54943 .44253-.2285.869-.52089 1.2855-.81121 .1733-.1204.54349-.26454.82263-.32032 .7188-.14361 1.58457-.43643 1.67219-.56557 .0409-.0603.28162-.12496.53494-.14376 .6966-.0517 1.20024-.20356 1.69675-.51162 .39305-.24386.50778-.27151.91991-.22172 .40409.0488.51334.0245.77051-.17136 .60692-.47254 1.29482-.53836 2.02589-.65634 .11723.14602.48648.21771 1.27187.2469 .46389.15039.46476-.30118.75624-.49006 .28981-.10036 1.45397-.14887 1.54666-.0644 .1356.1235.30892.0582.41651-.15682 .12955-.25897.5367-.35374.93355-.2173 .68581-.0515 1.39164-.49009 2.06832-.74969 .36166-.21801.41944-.22715.7153-.11316 .46427.17886 1.56026.0885 2.08444-.17183 .36997-.28868.96568-.0979 1.03225-.10464 0,.55509.27696.59539.80968.11782 .28645-.20845.5263-.47508.78511-.70869 .0452-.0731.20788-.16151.36159-.19654 .2584-.0589.27949-.0427.27949.21447 0,.20251.0977.35628.35924.56546 .83331.44293 1.79943-.10145 2.77605-.0598 1.08539.12893 2.14408.14338 3.22632.38687 .75983.26659.99822-.17452 1.58457-.47944 .68613.10362.42102-.11941 1.0608-.30086 .54755.21186.93663.23282 1.43555.40051 .84162-.27229.92678.16778 1.53533.44354 .29694.0893.39944.0748.75322-.10631 .59552-.19917 1.2415-.11917 1.89117-.19667 .23023.0628.49875.19015.59668.28292 .26389.24998 1.26349.32007 1.72233.12076l.35585-.15456c.2668.46622.69564.56636 1.10018.84828 .68844.37623.6708-.11887 1.16057-.24991 .43866,0 .50476.099.47372.70945 .002.78468.34087.58293 1.03657.75978 1.1358-.0953 2.167.2543 3.2889.14627 .21789.0498.24395.10244.22405.45247-.17011.45595.051.71805.0663.93276 .16526.0378.48847-.0262.91148-.18029 .46154-.16819.79916-.23045 1.14135-.2105l.57839.46415c.11056.52116.38181.65109 1.17956.56503 .45741-.0494.53227-.0306.75632.18961 .26242.25792.80381.3318 1.15978.15828 .21075-.10274.2964-.0545.59762.33693 .29963.44953.0214.2917.0508.69249 .0763.0874.37071.16972.73682.20601 .84434.0566 1.60032.51491 2.28756.84149 .35648.67759 1.10132.86706 1.76077,1.10879 .15615.42074.5472.0716.71922.0941 .0807-.29301.24338-.2928.59098.00078 .24417.20622.29587.50836.087.50836-.0394,0-.16787.0817-.28554.18155-.52263.40193.23044.56773.3353.82607-.16967.25006 1.13892.49757 1.55592.29429 .32389-.15789.65272-.0394.58592.2111-.0923.34631.24544.59808.93888.6998 .80532.0834 1.15511.70219 1.81517,1.16519 1.091.31172 1.98878.69687 3.0432.92055 .88246.0649 1.77155.39492 2.50665.61048 .11346.20314.18379.22573.6303.20247 .27644-.0144.73997-.0922 1.0301-.17293 .50503-.1405.54614-.13843.96549.0484 .62457.43288 1.2125.49087 1.94031.56664 .57911.0004 1.02521.0514 1.27038.14531 1.61787.0832 3.22534.25312 4.85428.26855 .46667.14432.52557.1409 1.64037-.0952 .92729-.22682 1.84996-.1463 2.76898-.0437 .14286.0696.47715.0453 1.22703-.0893 .81837-.14027 1.64633-.2041 2.47082-.29009 .46337-.0848.84762-.0743 1.98909.0543 1.04585.11777 1.46854.13309 1.621.0588 .11343-.0553.33502-.10201.49241-.10381 .55909-.11649 1.1086-.29565 1.6586-.43324 .46646-.13126.95361-.24633 1.43443-.34834 .63378-.23532 1.42302-.33827 2.49223-.32507 .62911-.0788 1.25931-.33766 1.84888-.55635 .22599,0 .71615-.0645 1.08926-.1433s.9904-.1442 1.37174-.1453c.54969-.003 1.05267-.19326 1.57546-.3466 1.04015-.26875 1.92389-.11966 2.95818-.51669 .85013-.21648 1.70322-.29015 2.5756-.52597 .67227-.2133 1.38658-.26752 2.08342-.36336 .22359-.0599.72666-.13921 1.11794-.17631 .87593-.0831 3.32856-.63678 3.42237-.77264l1.71434-.29815c.2769-.13044.51246-.15133 1.26062-.11184l1.8135-.35848c.49139-.22388.99621-.40705 1.12184-.40705 .28023,0 1.21634-.29367 1.41512-.44393 .30837-.0988.66968-.10024 1.00776-.15084 .40975-.0813 1.47674-.18486 2.37109-.23007 .88966-.15263 1.79548-.11805 2.66436-.14468 .70351.19444 1.06053.17023 2.14155-.14518 .89107-.25999 1.00761-.2735 1.52139-.17634 .60609.11461 2.90635-.0405 3.14672-.21218 .0682-.0487.86167-.1054 1.76327-.12595 1.09045-.0249 1.97297-.0993 2.63598-.22238 .84008-.14128 1.23572-.10531 1.95244-.0279 .24055.19828 2.99131.36736 3.47551.21361 .16475-.0523.45421-.0687.64325-.0364s.61679.006.95057-.0586c.54752-.10584.64625-.10017 1.0096.058 .38131.45789.76467.31812 1.24856.4901 1.61941-.068 3.09234.68628 4.73627.91124 .32254.12309.63752.16413 1.78664.2328 .16769.01.51947-.0143.78174-.054 .41218-.0625.52933-.0415.86386.15427 .56295.32949 1.06719.38952 1.3004.15478 .28574-.2876.66737-.23719 1.00613.1329 1.00619.3159 1.8245.24984 2.80998.30371 .75447.0111 1.47689.315 2.22568.4867 .59179-.0754.9973.0986 1.55751.37141 .23246.11348.57341.18514.88091.18514 .68582.0525 1.21528.62634 1.73494.97545 0,.20893.40354.34492.87873.29614 .55238.12243 1.01223.28793 1.67952.38863 .27718.2426.54737.38443.80906.42469 .51297.27234.92742.27065 1.44427.38712 .18168.37233.62065.33784.9006.49023 .65113.0904 1.30286.27873 1.92672.46286 .84561.3734 1.60134.81963 2.44149,1.16954 .50076.0763.82459.41044 1.21986.72988 .18504.0358.40504.11746.48888.18136 .14537.11081 1.27437.2634 1.84378.2492 .21463-.005.35723.10427.7106.54628l.4421.55298c.5325-.0398 1.06354-.0956 1.59501-.1463 .39905-.0459.68088.11468.70777.40335l.0424.46713c.0154.17146.0764.35585.13555.40973s.46312.12189.89768.15111c.85852.0194 1.3917.51196 2.08023.93255 .31153.27065.62644.46286.75835.46286 .12407,0 .60571.10879 1.07031.24176 .65958.18877.90803.31038 1.13358.55486 1.23852.69748 2.44488.92685 3.62392,1.80771 .27205.26919.53506.50689 1.54217.68507 1.27281-.0509.54928.50753 1.00139.92528 .12974.12579.33736.22871.46138.22871 .89236.3857 1.72465.91988 2.5584,1.32661 .15516.31016.73058.69494 1.15276.77081 .51337.0923 1.00782.29717 1.00782.41764 .65297.94775 1.59311,1.39452 2.66444,1.72135l.58858.53196c.40649,1.32224 1.67643,1.99488 2.54116,3.077 .24659.11456.55343.20829.68188.20829 .50113.023.73055.47081 1.03129.69317 .31039.41879.59715.8903.89724,1.29929 .0335.18814.20278.53539.37614.77166 .25064.34159.41695.46031.812.57967 .5234.0984.86302.50849 1.2346.76936 .22163.48315.52148.73391 1.39034,1.16272 .52499.58131 1.05266,1.13374 1.57059,1.69847 .27884.2463.39081.58928.59554.89799 .14144.17462.30613.46635.36597.64828 .95269.65602 1.54239,1.89245 1.90429,2.74945 .27216.11372.55216.26969.62224.3466 .71373.075.71663.48422 1.11388.91687 .15353.74007.69798,1.03054 1.22698,1.4831 1.20967.37643 1.36245,1.44551 1.91446,2.48847 .0857.0915.32973.25537.54228.36418 .55336.26782.78331.85152 1.09785,1.32207 .4398.88775 1.36029,1.42424 1.91833,2.41645 .22852.0959.44228.24723.47501.33633 .41174.16508.62812.55106.96047.85313 0,.21632.41551.79.5722.79 .23047.1187.42509.335.6409.50507 .44649.33412.54846.99695.69279,1.50405 .68675.38847 1.12877,1.0023 1.64608,1.58169 .79654.68129.69969,1.69708 1.14469,2.63486 .21352.38499.48189.77422.70099,1.16145 .15428.40233.40253.61978.60278.92812 .36759.4132.77195.84192 1.11379,1.2404 4e-005,.11581.14343.48134.31863.81228s.40657.91414.51413,1.29599l.3273,1.15713c.0725.25457.25151.67114.39791.92571 .3111.6827.70706,1.33603 1.04614,1.98704 .21946.23757.25593.34908.20593.62973-.6499.58157-.0873.72115-.0975,1.23856 .13932.9971.0846,1.79267-.17662,2.51514s-.72897,1.37188-1.41572,2.07661c-.0923.37559-.4711.35203-.71665.53552-.17667.19389.0289,1.02655.36478,1.47733 .13637.18303.24794.37644.24794.42979 .30377.46151.51245.97668.72072,1.48765 .0488.60406.3055,1.12197.49884,1.67383 .38054.36384.23772.88125.29977,1.31844-.15478.0871-.10938.41568.1499,1.08481 .14294.46865.2832.86117.42622,1.32848 .44453,1.17217.52791,2.24222 1.11361,3.35243 .21174.34478.23897.4875.19882,1.04176-.0361.49828-.003.73557.14935,1.05848 .29461.36054.45621.72457.71125,1.10605 0,.16791.89099,1.56168 1.07984,1.68917 .11213.59381.13767,1.28382.2574,1.93236-.49419.48672-.16603.87108-.21717,1.33821 .42847.53768.54921,1.18944.76073,1.80571 .18132.8062.34988,1.59847.4567,2.41604 .12148.563.16331,1.12633.27758,1.67774-.0526.59656.14649,1.29538.41148,1.44456 .11378.0641.29266.66992.37919,1.28433 .20439.71431.65436,1.35011 1.00717,2.00714 .21019.67965.0454,1.39505.099,2.1365 .21436.38631.22956.5208.20924,1.85142-.16056,1.29675-.23104,2.27171.25758,3.44421 .19655.31373.2463.92742.084,1.03642-.315.21157-.40244.49585-.28052.91216 .3771.78654.14863,1.44796.25624,2.2726 .0626.63589.16758,1.28921.26627,1.92647 .27911.39804.25573.89748.29315,1.39012 .0734.19686.13914.67503.1461,1.06257 .14133.85531.21269,1.71895.20488,2.55515 .0614.91491.03,1.76364.19272,2.64862 .23797.37505.10468,1.15097.0955,1.50548 .19886.32077.37303.74649.52129,1.12127 .19563.32419.3557.6213.3557.66022s-.15557.12204-.34572.18466c-.51384.16925-.62149.32488-.4641.67098 .43152.33503.46706.79722.69472,1.23503 .0485.0273.11199.24237.14115.47795s.14202.53855.25083.67327 .22996.36265.26924.50654c.0583.21342.0239.29566-.18654.44643-.3755.26904-.29696,1.02005.12164,1.16316 .3987.13628.53877.52341.31007.85697 .0952.52855.43766,1.22089.63154,1.82134 .35131.35513.20591.77937.30129,1.23004 .0539.0918.11886.34938.14432.57248 .12851,1.12639.2009,1.52706.29559,1.63612-.15011.31208.0713.58274.10764.87991 .29045.2477.51151.82448.44233,1.1541-.0279.13316.036.48954.14205.79198-.0398.46097.33809.71433.49584,1.04765 .29126.22323.58034.87338.46435,1.04433 .007.24936.16623.47859.24835.71502 .45138.39592.66785.97511.91523,1.52194 4e-005,.0806.24385.29954.5418.48645s.63177.43336.74185.54766c.2894.30054.63322,1.16606.63414,1.59639 .001.5615.45751,1.42419.81299,1.53706 .33859.21701.66226.4762.97985.7339 .0705.20245.51522.64502.64809.64502 .14438.29419.35443.57951.52433.8573 .15028.0855.19855.21656.19855.53919 .0867.50278.39254.93656.66848,1.37228 .19176.20759.25719.37688.24422.63195-.0379.74503.005.92823.28634,1.22167 .1564.16317.5245.73118.81801,1.26225s.56572.96692.60491.96854c.66375.37346.58561,1.13581.68893,1.84847 .0345.28003.0917.5508.12711.60171s.0912.38451.12395.74132c.0503.54774.11782.72589.43386,1.14438 .20586.2726.3743.52336.3743.55725s-.0969.13718-.21533.22954c-.19283.15039-.20796.22753-.14476.738 .0123.35522.21827.6705.31732.97478-.0345.0508.0121.58456.10345,1.18611s.18028,1.51029.19757,2.01943c.031.91342.16211,2.31942.30386,3.25927 .0606.40193.0369.53754-.1428.8149-.11854.183-.24597.57006-.28315.86012s-.12498.56904-.19507.61995c-.1552.11273-.21689,1.06997-.1006,1.5607 .10959.46239-.0381.54949-.6065.35761l-.43168-.14573-.69694.65444c-.49981.46935-.85505.71336-1.25591.86274-.30743.11456-.71048.3481-.89567.51896-.36025.30271-.76685.49222-1.16293.7169-.86441.44946-1.69927,1.05471-2.48392,1.63034-.0575,0-.26944.11937-.471.26527-.32116.19973-.66785.39356-.98268.57909 0,.15179-1.2185,1.19219-1.39742,1.19318-.0978.00053-.47512.27401-.83845.6077-.386.35452-.77861.62862-.94451.6594-.54319.39668-1.09347.77291-1.69843,1.12183-.24925.3931-.65097.77815-.81525.97453-.50228.0901-.92039.1546-1.34526.26031-.26604.24157-.57524.42696-.86144.63938-.0757.0972-.33018.18721-.63783.22575-.54967.0689-.81142.23341-.81142.51008 0,.0952-.0426.19704-.0946.22633-.33074-.0216-.19397-.54326-.27872-.78062-.11438.003-.43971.61265-.43971.82387 0,.1098-.0934.18681-.26209.21618-.30722.0535-.41455-.10758-.25389-.38101 .0602-.10246.10946-.26496.10946-.36111 0-.15672-.0728-.17246-.70305-.15207-.37986.0901-1.09922.13097-1.29204.15771-.0492-.17127-.16753-.18918-1.60806-.24332-.85524-.0322-1.67994-.10171-1.83266-.15461-.39795-.13781-3.54304-.0152-4.06665.1585-.22359.0742-.74295.14817-1.15415.16442s-.79765.0751-.85878.13077c-.0721.0656-.74293.10124-1.90774.10124-1.43783,0-1.82077-.0265-1.91775-.133-.0667-.0731-.38097-.15859-.69846-.18986-1.21214-.11939-1.30914-.14455-1.42121-.36857-.12868-.25728-1.15607-.53569-2.05252-.55623-.59757-.0137-.74537-.0514-1.35816-.34603-.45895-.2207-1.71109-.27997-2.10636-.0997-.13474.0614-.7938.241-1.46456.39899-1.81524.42755-2.00103.48346-2.38251.7168-.48631.29748-.67361.24488-.63362-.17793 .51048-.69425 1.23434-1.11065 1.90846-1.60586 .32825-.22805.65033-.69615.65033-.94517 0-.0719-.0481-.21259-.1069-.31265-.10599-.1804-.10937-.18035-.3968.006-.15945.10342-.43859.18803-.62033.18803-.19582,0-.46605.0942-.66337.23131-.773.19291-1.1708.49621-1.81539.8362-.21077.10749-.43226.27524-.4922.3728-.30534.49697-.80691.56545-.70854.0967 .32062-.85825.11436-1.10643.78562-1.68255 .12009-.26228.37552-.34428.57333-.52564 .10425-.18152.32451-.43117 1.07958-1.2237 .11301-.11862.17476-.34493.17681-.648l.003-.46571c-1.16194-.0844-1.90473.73454-2.69321,1.34353 0,.18451-.16337.3163-.39708.3203-.0786.001-.23872.14824-.35571.32644-.28377.43225-.78654.92571-.94317.92571-.12875-.77132.27139-1.69837.75241-2.48184 .11972-.0158.38736-.22409.59473-.46286 .63597-.69786 1.49709-1.51506 2.00542-2.06945 .69899-.43637 1.2298-.63128 1.73764-1.17025 .25255-.13572.35724-.26982.40977-.52488 .12116-.58829.36107-.6084.66428-.88068 8.59937-7.72202.5621-.24055.79695-.42365s.5894-.37376.78786-.42368 .38914-.15787.4237-.23992c.15861-.37649.70339-.70465 1.41994-.8553 .29068-.0611.58212-.16995.64763-.24185 .58405-.19979 1.13893-.49762 1.69386-.7823 .20788-.20494.51328-.23608.77669-.35723 .49637-.23493 1.05127-.28907 1.58726-.38383 .25154-.052.80034-.13208 1.21957-.178s.90555-.13027 1.08072-.18743 .7697-.11773 1.32119-.13457c1.01415-.031 1.30441-.0545 2.67961-.2176 .95887-.11368 1.09022-.1644 1.27677-.49296 .13493-.23768.20424-.26649.64108-.26649 .47445,0 .82619-.18313.82619-.43017 0-.18323.65812-.86582.83479-.86582 .11146,0 .18151-.0688.18151-.17836 .39236-.35537.4158-.79918.5423-1.30925l.003-1.64426c-.37001-.33703-.37331-.33794-.47459-.13117-.21646.47455-.31144-.0929-.54341-.16208-.32361-.21582-.17077-.63747-.22319-.83313-.10313,0-.26931-.0823-.36929-.18296s-.21692-.16318-.25987-.139c-.0741.0417-.46385-.46398-.62584-.81204-.0415-.0891-.12899-.16199-.1945-.16199s-.16989-.0607-.23196-.13483c-1.07048-.73499-2.11103-.65441-3.13775-1.12687-.23678-.033-.55832-.11877-.71452-.19053-.2317-.10645-.34745-.10959-.6285-.017-.37105.12221-.66278.0101-.66278-.25464 0-.15765-.92547-.17832-1.23469-.0276-.15561.0759-.24588.0681-.37444-.0322-.0932-.0727-.24602-.15682-.33967-.18696-.18325-.059-.80563.0635-1.17511.23121-.17066.0775-.36628.0729-.7833-.0182-.36959-.0808-.88466-.10358-1.53714-.0681-.90984.0494-.98502.0403-1.0325-.12502-.25827-.21851-.72751-.28079-1.08459-.37044-.31115-.1519-.49385-.17951-.87327-.13197-.83654-.26735-1.32995-.55114-2.34584-.43365-.0796-.0708-.36534-.20467-.63499-.29748-.40477-.18462-.73501-.42115-1.1063-.6534l-1.75214-.28167-.16446-.40638c-.1746-.43142-.41959-.60112-1.01465-.7028-.28564-.0488-.39482-.0227-.54725.13068-.84802.38766-1.53163-.12801-2.3043-.46723-.29436-.28702-.3133-.34515-.26147-.80254 .0438-.38638.0229-.50464-.0967-.54641-.22225-.0777-.39294.12312-.39294.46223 0,.2633-.0328.29695-.29772.30546-.44541.0143-1.09859-.13975-1.30146-.30699-.0987-.0813-.17936-.23757-.17936-.34723s-.0649-.28024-.14425-.37908c-.14131-.17602-.14964-.17508-.40731.0454-.25173.21541-.27724.21893-.59297.0818-.43107-.0912-.82321-.30728-1.22234-.45651-.1-.0959-.21833-.17436-.26297-.17436s-.16682-.22952-.27151-.51004c-.29488-.79019-1.15238-1.25413-1.36713-.73966-.0591.14169-.17639.23142-.30237.23142-.27652-.0903-.24257-.54057-.36347-.80999-.0867-.0891-.23819-.26101-.33659-.38202-.70669-.12966-.82636-.67704-1.16906-1.10226-.52293.0606-1.52198-.20065-1.71366-.21782-.10445-.384-.2841-.73472-.44398-1.10437-.12418-.24056-.46115-.45921-.57623-.5738-.0689.0485-.32279.0692-.5641.046-.47544-.0456-.62837-.23011-.62837-.75814-.0604-.23255-.19978-.40035-.30489-.61098 0-.1393-.0974-.31539-.22867-.41345-.14527-1.02885-.62576-1.22986-1.50059-1.61941-.13162-.14444-.28355-.67605-.35669-1.24801 .055-.4432.0476-1.08807.0512-1.17141-.33026-.88755-.89873-.0256-1.12308-.032-.23104,0-.37055-.25788-.4394-.8122 .0456-.49243.10842-.67607.14129-.881-.16927-.25613-.34791-.51613-.51493-.76392-.2526-.0717-.36146-.19451-.57071-.644-.14222-.30548-.31046-.65547-.37387-.77775-.14248-.27475-.11431-1.02754.0543-1.45232 .18629-.46925-.0276-.62364-.92817-.66999-.72603-.0374-.90126.0247-1.04484.37032-.37776.26086-.78359.53992-1.10726.75443-.39188.0864-.84442.33042-1.20259.52607-.22174.00028-.46311.0797-.63277.20828-.2397.18162-.28159.29463-.33215.89607-.0318.37854-.077.70572-.10047.72707-.3689-.11726-.67158-.24719-1.01766-.37457-.56995.0321-1.07027.4845-1.07027.96769-.34876.43243-.71744.67194-1.11044,1.28062-.23899.74667-1.02139.64772-1.728,1.26288-.34984.38075-.69355.65218-.93921.7417-.31995.11662-.40831.20806-.50722.52491-.37752.85141-1.2269.93842-2.01622,1.3742-.1201-.50141-.65957-.23604-1.06165-.29434-.34504-.11948-.63378.10552-.71798.55947-.0385.20748-.12259.39389-.18689.41425-.12056.0382-.62921.11419-.85386.12764-.0699.004-.2671.28879-.43812.63246-.18163.60839-.6114.86581-.96578,1.25398-.12911.5354-.31914.70088-.8401.73152-.45411.0267-.47847.0426-.5672.36973-.082.30231-.12313.3368-.35571.29835-.41664-.0689-.54073.0769-.60779.71385l-.0617.58619-.89985.0974c-.99486.10773-1.24799.2624-1.13446.6932 .16955.64334.17047,1.11089.003,1.56991-.44743.51275-.99259.95338-1.52938,1.39235-.0284,0-.2264-.10534-.44-.2341-.43771.0659-.57659-.35957-.72521-.45225 0-.26611-.0514-.35724-.24759-.43865-.39894-.16556-.5992-.0399-.52336.32839 .0489.23729.0256.32582-.0969.36865 .0584.0601.36312.47331.52363.68253-.023.24184-.0464.47096-.052.50914-.14581.0587-.32239.11667-.47406.17156-.59887-.2915-1.27454.35799-1.40635.39731 .09.2137-.15355.87262-.40837,1.10472-.15322.13957-.2635.38006-.30813.67202-.0382.25006-.13156.53121-.20739.62479-.44536.17188-.88926-.39911-1.25708-.77184-.21034,0-.31896.16981-.31896.49862 0,.28616-.59849.85263-.98186.92934s-.66737.3404-.68341.62853c-.14082.29734-.47457.46685-.71432.70269-.22408.39068-.68091.73089-1.15039.85672-.38022.10191-.43791.15402-.49612.44826-.0926.46773-.26601.74331-.54866.87166-.19947.0906-.2487.19315-.27488.57267 .0644.4509-.35897.67909-.53821,1.01816-.19201.0555-.20422.10787-.14201.60873 .0514.41361.0365.54799-.0609.54799-.18378.27174-.44906.10651-.62824.14901-.45003-.16701-.61428.43446-.82832.77163-.51356.17893-.94026.93267-1.0521,1.85848l-.0818.67742-.58002.007c-.47371-.1272-.74043.27544-1.12411.41817-.37181.68556-.85227,1.133-1.32421,1.683-.60227.30516-.58243.71092-.90117,1.13972-.24522.34472-.63175.54062-.93647.79767-.17744.53969-.53367.96087-.81797,1.43714-.25542.28258-.42253.56876-.58071.78168-.59969.0589-.75667.54516-1.0501,1.03088-.12371.30966-.37593.50036-.55859.74348-.43664.36947-.58907.98266-.80886,1.51048-.73574.81864-.75046,1.64501-.91744,2.01763-.93495,1.36792-.65369,1.48502.50372,1.83124 0,.26584-.2191.33487-.78438.24711-.49586-.077-.53446-.1024-.59394-.39121-.0998-.48481-.5492-.51563-.70309-.0482 .11902.67327-.75842.46546-.82958.50914-.2797-.25477-.76048-.17252-1.11534.1908-.28106.28776-.39766.33638-.91726.38251-.3274.0291-.66387.10567-.74771.17023s-.49545.16832-.91468.23052-.96803.152-1.21957.19952c-.9435.17825-1.14009.1871-1.59226.0718-.64193-.16371-1.89339-.1649-2.10887-.002-.48366-.078-.89729.1065-1.33804.1654-.16304.0111-.61656.0559-1.00784.0996s-1.1148.0671-1.60783.0521c-.99039-.26576-1.39533-.29368-2.31042-.2323-.58404-.006-1.43173.18187-1.56387.34647-.53239.0367-1.17268.0372-1.77577.10109-.36811.0183-.92082.0562-1.22826.0842-.92943-.0487-1.6978.28552-2.53838.54837-.26471.26139-.68656.32643-1.01522.49957-.58975.11916-.63016.115-1.15587-.11928-.29962-.13352-.59737-.24277-.66167-.24277 .0878.20673.0269.50322.0355.66485-5.74949-2.08719-.72229-.17165-7.24117-.17411-.73301-.59195-1.44188-.11031-2.2831.0647-.43783.21683-1.00387-.0488-1.40063-.138-.0492-.1179-.12861-.23639-.17646-.26332s-.56517-.0711-1.14961-.0982c-.90883-.0421-1.08717-.0767-1.23218-.23866-.21579-.31816-.52806-.63842-.98135-.84741-.21712-.39379-.27468-.43403-.71141-.49731-.61571-.1322-1.38886.004-1.92703.0596-.28699-.0611-.51439-.26865-.76966-.40197l-.25443-.29613c-.009.32022-.34631.43275-.52216.65249 0,.23986-.0593.28747-.58438.46899-.9752.33715-1.04171.34444-1.04171.11435 .20662-.41583.57446-.77079.88788-1.12207 .19797-.31497.20116-.34863.0439-.46365-.47339-.34625-1.40622-.63156-2.06489-.63156h-.49299c-.44149.47387-.86383.9187-1.57806,1.20342-.56516.27613-.67751.30348-.76054.18514 .59993-.80597.98568-1.19632 1.18657-2.17614-.11272-.63285-.6595-.67851-.9724-1.00043-.64378.94501-.74389,1.3715-1.42905,1.82937-.0916.15003-.43155.43763-.75541.63911-.47397.29487-.60646.34097-.67919.23636-.13562-.19513-.11166-.36141.0521-.36141 .79448-.60857 1.08112-1.54325 1.51487-2.38867-.98898-.40519-1.90947.10677-2.87599.85454-.18093.48306-1.0004.89657-1.39458,1.2293-.16587-.73573.28653-1.19031.67919-1.73081 .33085-.31367.60224-.72375.92382-1.07301 .21945-.1809.24013-.39327.0871-.89503-.0848-.27801-.15444-.34714-.3499-.34714-.82054.33307-1.16676,1.15753-1.61259,1.90456 .0569.21871-.19764.46026-.378.35873-.20426-.115-.0386-1.03452.2562-1.42199 .20371-.44528.4199-.87663.60436-1.32531 .62724-.81952.66424-1.13387 1.74556-1.29798 .98897-2.0432 3.17237-2.09974 4.72731-3.30899 .46379-.003.83377-.29619 1.22565-.51231 .43757-.0875.91723-.32489 1.2311-.60918 .84188-1.03919 1.59658-1.40907 2.6696-1.78429 .7085-.41768 1.65845-.27382 2.539-.48195 .13577-.081.53434-.16988.8857-.19744s.69608-.0914.76608-.14189c1.72914-.11073 3.45258-.32631 5.17853-.50433 .93869-.0225 1.82104-.0376 1.96079-.0336 3.157.0906 3.64635.0796 3.81025-.0854 .0959-.0965.24732-.14631.36197-.119s.57458-.004 1.03594-.0653 1.18487-.11045 1.60779-.10823c.76023.004.77105.00069.95447-.29185 .10204-.16274.29748-.40621.43433-.54105 .20889-.20583.23025-.2767.13319-.44189-.0918-.15625-.0832-.22621.0416-.33989 .0864-.0787.18534-.24548.21981-.37054 .20903-.23158.35524-.57825.47791-.77794 .16818,0 .21807-.16498.41947-1.3869 .10708-.64964.11468-.89465.0292-.94274-.14896-.0839-.27757-.01-.27757.15969s-.29424.17383-.36672.002c.12462-.33381.0416-.67744.0628-1.02145-.0932-.40883-.0853-.55671.0446-.83999 .19754-.43064.20726-.39629-.12177-.43077-.26377-.0276-.28007-.0566-.28985-.51529 .36991-.58526-.0854-.59143-.14208-.98333 0-.27846.0417-.34182.25769-.39118 .0747-.082-.017-.22126-.0254-.33189-.217-.0381-.41265-.59631-.25827-.73693 .086-.26218-.008-.57398-.0115-.85809 .0348-.0998.0688-.70475.0758-1.3444 .0113-1.05014-.007-1.17763-.18671-1.31385-.15477-.11718-.2084-.29825-.24021-.811-.0253-.40757.003-.70819.0735-.78575 .11027-.12101.22566-1.05685.23386-1.89663-.153-.62694-.41988-1.11598-.58835-1.66548-.27198-.11288-.30654-.37563-.14786-1.12395 .0486-.22911.0519-.45822.007-.50914-.10775-.1231-.32633-.94726-.34371-1.29599-.008-.15274-.0727-.31977-.14461-.37118-.17913-.56102-.041-1.34991.0282-1.86338-.1267-.17611-.14918-.32757-.0919-.61927 .13004-.66272.10507-1.20345-.0756-1.63585-.0957-.22911-.16907-.49988-.16305-.60171-.52943-1.16452-.38798-1.88517-.61449-2.85217 .0675-.11146.11043-.27585.0954-.36529 .1999-.17267.41816-.51594.4599-.56744-.13961-.1941-.141-.27573-.0122-.71648 .0799-.2736.1459-.63385.14656-.80059 .00094-.23765.0561-.32215.25529-.39113 .13974-.0484.25407-.12622.25407-.17295 0-.13753-.27038-.19174-.39413-.079-.18938.1725-.37478-.0667-.25123-.32409 .0734-1.07268.3108-1.70729.23932-2.8934-.0994-.40142-.0637-.51108.16644-.51108 .35339,0 .0357-.23524-.37831-.28011-.54906-.0595-.70328-.1407-.70328-.37021 0-.15948.18294-.61269.41893-1.03784 .0491-.0884.0895-.27587.0899-.41657 .33825-.37335.002-.93394.003-1.04268-.11576,0-.20645-.061-.20645-.13886 .27505-.0892.5162-.36319.71141-.50053 0-.1371-.054-.29843-.1199-.3585-.0896-.0817-.0912-.16226-.006-.31937 .0976-.18065.17841-.54099.24421-1.08958 .009-.0764.0893-.18796.178-.24796-.0817-.33695.18606-1.41236.30658-2.23423-.0938-.37894.005-.5991.36648-.81472 .13777-.0822.2505-.19678.2505-.25457-1e-005-.16354-.62888-.58063-.96653-.64103l-.76119-.14859c-1.09264-.2619-2.08843.27065-2.34119,1.25618-.19181.84155-.796,1.52158-.97481,1.09716-.0316-.075.0199-.39783.11442-.71743 .37247-1.25936.39849-1.80841.0804-1.69724-.0812.0284-.28111.0516-.44422.0516-.31313.21133-.58591.70738-.85555,1.11085-.0838.0634-.15244.25498-.15244.42577 0,.39503-.40601.6924-.67142.49177-.17885-.49655.12924-1.32109.21408-1.62463-.16173-.26329-.47211-.2917-.72607-.44862-.94053-.33868-.73295.0691-.74204,1.29828-.17073.34299-.31043.77579-.31043.9618 0,.29581-.0439.35631-.35024.4828-.42781.17661-.56578.0834-.56112-.37912 .003-.31376.30069-1.23809.43909-1.36415s.0527-.30619-.18602-.36077c-.39976-.0914-.9346.42339-1.01873.98053-.0809.53604-.3876,1.01748-.64811,1.01748-.27278,0-.33611-.2256-.17622-.62761 .21094-.53032.37594-1.43794.27768-1.52744-.64459.0453-1.14564.61119-1.58747.95163-.28305,0-.32978-.16982-.12778-.46443 .15958-.23275.0169-.46409-.35603-.57732-.32318-.0981-.75709.12593-.89809.46373-.11424.2737-.30101.23154-.48319-.10906-.10004-.18702-.10694-.28456-.0254-.35882 .0616-.0561.11197-.147.11197-.20203 0-.10963-.55658-.3551-.83623-.3688-.0966-.005-.23741-.0856-.31293-.17966-.11832-.14738-.17135-.15497-.38335-.0548-.39591.18696-.60173.38575-.60173.58117 0,.15168-.0494.17336-.2935.12889-.37642.18847-.69251.0765-1.04385.11539-.30702-.26641-.64863-.47119-.9584-.7114-.33447-.0935-.42765-.0837-.70819.0742-.52079.29317-.58604.25099-.50667-.32762 .0582-.42446.0421-.51917-.0964-.5676-.10565-.0369-.22162.0138-.31801.13919-.0835.10852-.25638.19732-.38429.19732-.24185,0-.49078.20294-.60375.4922-.0464.11879-.14794.15957-.34574.13885-.24954-.0261-.27659-.0621-.24815-.3302l.0319-.30085h-.81954c-.61917,0-.81955.0305-.81955.12464 0,.23469-.31434.69875-.51202.7559-.301.087-.39499-.0187-.33185-.3731 .047-.26377.0256-.3223-.11805-.3223-.69921-.38487-1.05161-.067-1.61593.122-.0739.26816-.46327.43371-1.08292.46042-.36173.0156-.45505-.0132-.48581-.1496-.0209-.0929.0341-.24159.12243-.33045 .15144-.15241.13037-.15764-.3722-.0924-.293.038-.77711.0722-1.0758.0759-.44524.006-.55221.0386-.59378.18334-.10435.36348-.74331.29295-.74331-.082 0-.14074-.1658-.169-1.34661-.22954-1.8777-.0963-2.01559-.095-2.0932.0194-.11613.17116-.76478-.002-.87818-.23424-.1292-.26475-.52248-.27473-.61279-.0156-.0526.15097-.0955.16786-.20891.0821-.11154-.0843-.15642-.0753-.20559.0414-.0881.20919-.2444.18626-.2444-.0359 0-.25019-.16516-.2353-.23889.0215-.0361.12586-.0931.17111-.14561.11571-.0828-.0874-.35021-.65554-.46755-.99354-.0309-.0891-.12199-.162-.20235-.162-.10041,0-.16598.15195-.20968.486-.035.26729-.11317.74689-.17375,1.06577-.10498.55262-.0965.60467.1811,1.11085 .16018.29209.32714.55526.37101.58482 .0904.75747.33569,1.44156.63055,2.1437 .092.29215.2442.57093.33825.61951 .15764.0814.15589.0985-.0224.21848 .0264.30313.0522.51147.0918.89882-.0839.0634-.15245.17512-.15245.24832 0,.19818.63731,1.04767.78601,1.04767 .0708,0 .12866.0776.12866.17241 .7531.80346 1.01782,1.51657 1.30757,2.48534-.0236.67381.10769,1.01347.56606,1.46397 .25942.32138.39905.71841.58457,1.08475 .10838.13967.17493.28654.1479.32639-.0903.13311.35202,1.17438.63885,1.50386 .45767.52571.60761,1.14095.34299,1.4073-.17467.17581-.12432.83097.0684.88947 .35545.79503.94085,1.4858 1.44327,2.17482 .27221.15178.92245,1.06094.84278,1.17835-.0359.0529.007.19709.0959.32035 .12939.31475.24252.63167.36484.95027 .25767.38493.25754.63624-.00037.78296-.23173.13181-.2775.53393-.0608.53393 .15205,0 .36597.45552.36515.77752-.001.48308.37012,1.11651.98799,1.68519 .6566.60433.70196.69222.77026,1.49242 .27841.56902.34091,1.18247.48282,1.72758-.24361.97433-.24488.9425.0459,1.15087 .18791.13462.28978.31177.3278.56995 .0472.32068.0166.40713-.21245.60052-.20837.1759-.26796.314-.26916.62376-.002.52518-.24092,1.13812-.44412,1.13944-.0875.00056-.23679.0718-.3317.15822-.15227.13869-.15695.20033-.0399.52353-.0322.56318.25764.94545.41069,1.44071 0,.17985-.0642.24605-.27949.288-.15371.0299-.43955.1065-.63519.1701-.33593.10923-.35357.13589-.31731.47959-.0152.87292-.46387,1.10819-.94451,1.76766 .015.34806.0805.83236.14551,1.07622 .1319.4948.0112.7593-.3049.66794-.23106-.0668-.71303.28886-.71303.52618-.42199.29404-.64294.77454-.91587,1.1859-.0474,0-.0473.12356.00021.27457 .0814.25855.13588.74017.11291.99828-.28637.10834-.58894.29425-.8826.44097-.34824.29916-.36888.34474-.25716.56807 .075.14988.0954.40082.0535.65568-.0565.34305-.11596.42811-.35171.50296-.34892.1108-.42101.2498-.49555.95539-.0578.54706-.0632.555-.41425.61276-.58549.0963-1.11794.34697-1.11794.52621 0,.0898-.0772.26375-.17165.38653-.16202.21069-.18908.82747-.0976,2.22481-.69292.63732-.83301,1.46088-1.00038,2.31747 .0972.3339-.37431.36997-.59313.58625-.23819.0544-.47391.39522-.47576.68776-.00054.0867-.11361.37797-.25125.64728-.19211.37587-.33357.52136-.6088.6261-.30647.30044-.67357.28716-1.05425.4498-.36392.17631-1.78398.60987-1.99758.60987-.20328.19193-.45592.31513-.69606.48112-.31126,1.1317-.69115.40162-1.06336.65982-.39974.13752-.86205-.13525-1.26218-.28098-.27259-.37348-.29383.21113-.38136.27403-.0915.1902-.44576.0634-.72038.1025-.972-.24394-.77444.494-1.22604.72243 .0426.27774-.19747.28617-.49821.0175-.16242-.1451-.29657-.34183-.29813-.43716-.002-.14407-.0288-.15374-.15636-.0573-.0859.0649-.41051.11385-.73683.11101-.40671-.004-.63989.0415-.7703.14861-.17446.14332-.19571.14285-.3161-.007-.10773-.13419-.29801-.16077-1.1511-.16077-.47061-.0124-.94712.0824-1.32922.11571-.31635-.17013-1.42815-.15301-1.50236.0231-.0965.22893-.51466.15814-1.02741-.17393-.55327-.35832-.883-.47158-1.06645-.36633-.17923.10282-1.31874.0344-1.48413-.0892-.10451-.078-.17988-.0498-.32061.12014-.17961.21688-.21681.2218-1.56569.20671-.75994-.009-1.3817.015-1.3817.0523-.61647.34959-1.36591.50242-2.05664.67359-.65719-.004-1.19179.0564-1.85334.14563-.87624.42798-1.03686.45761-2.03322.0838-.78591.10763-1.49487-.0408-2.28561-.14357-.59572-.27857-1.52239.045-1.80176.0893-1.54819-.72392-3.00914-.17639-4.33867.28824-.23016.3549-.55086.51725-.63364.32077-.39636-.47379-.38534.34314-.54129.482-.0735.34367-.15089.65272-.17199.68678-.0391.0632-.64635-.17885-.64635-.25759 0-.0238.0867-.15613.19276-.29408s.21921-.38621.25153-.55168c.055-.28162.0403-.30085-.23113-.30085-.80008.29736-1.61698.56422-2.46282.77485-.3522.0743-.55513-.12818-.39746-.39653 .88214-.552 1.93017-1.01691 2.90609-1.58321 .34944-.10504.55176-.42525.40519-.64127-.0958-.14112-.49116-.12023-.72097.0381-1.37821.16387-2.09428.20277-3.38787,1.22246-.43463.0469-.51891.0318-.51891-.093 0-.0819.13106-.23724.29125-.34511 .44094-.56274.92618-.98379 1.48274-1.4294 .83451-.55281 1.38811-1.35737 2.08797-2.07738 0-.20839-.15973-.32966-.25305-.19211-.0351.0518-.14692.0941-.24846.0941-.79624.11337-1.37919.42723-2.0314.85877-.16772.0577-.38863.25057-.50743.44311-.23848.38648-.75893.56281-.96268.32615 .31819-.60021.68069-1.10443 1.07482-1.67431 .66245-.81697 1.22195-1.71695 1.84046-2.5417 1.17171-.96449 1.93332-2.14859 2.97032-3.16142 .0496-.20589.14888-.28768.44805-.36933 .30568-.0834.42856-.18788.60078-.51076s.27191-.40589.46612-.40589c.52735-.21245.99697-.64033 1.48073-.97466 .25153-.17874.69744-.43137.9909-.56137 .45979-.38506.91397-.59947 1.45864-.86539 .21213-.10746 1.34261-.34955 1.90004-.4069 .27191-.028.63639-.16861.96549-.37253 .3387-.21797.7406-.35801 1.08765-.52577 0-.12516.63283-.27746 1.3212-.31797 1.0011-.11843 2.03275-.0814 2.7565-.0546 .72355.0418 1.34293-.10314 2.1021-.13278h1.29004c.7453-1.17796.84871-2.28887.50244-3.56397-.0904,0-.24731-.18358-.36614-.42827-.21839-.44969-1.05769-1.67642-1.41703-2.07114-.24673-.41008-.71362-.46187-1.11039-.63631-.8242-.42087-1.51749-.9669-2.20766-1.59098-.55848-.29569.0714-.39807.0762-.42486 .77891.0776-.50872-.45407-.73069-.55388-.97583-1.15189-2.07556-1.83122-2.8772-3.03924-.10451-.65732-.71486-.92254-1.20143-1.28683-.27178-.0621-.78094-.46159-.9569-.75074-.76916-.42763-1.4507-.98065-2.11835-1.49246-.29273-.34995-.78523-.31604-1.1666-.4164-.28752-.12671-.54564-.35264-.78668-.50842-.0168-.0973-.12213-.4089-.23414-.69239-.25213-.71918-.8414-.72806-1.44759-.95829-.19904.0696-.47282-.20828-.47282-.47983-.074-.4036-.22156-.79653-.34798-1.1882-.0728-.35398-.65763-.97761-.91686-.97765l-.71881-1.15712h-.69928c-.93363-.14391-1.14937-.58524-1.58861-1.34227-.0931-.12729-.27648-.38299-.40756-.56821-.57587-.38624-1.18336-.67762-1.77973-1.19199-.25881-.066-.48386-.16559-.50013-.22132-.17927-.61406-.32384-.90789-.52522-1.06737-.13186-.10443-.23974-.22857-.23974-.27587 0-.16867-.69764-.30799-1.02376-.20444-.95542.21654-.67307-.37657-1.06611-.77131-.12909-.49128-.16343-1.45058-.17895-1.7341l-.74598-.14924c-.28596.0277-.28814.0239-.28162-.48125 .004-.28003.0265-.65494.0508-.83314-.11643-.45354-.75574-.63671-1.17296-.96682-.45148-.0617-.64878-.17643-.47322-.27526 .0506-.0285.007-.28979-.0964-.58497-.27879-1.27321-1.32885-1.64438-2.35458-2.22766-.056.1347-.22219.2469-.33273.36974-.72193.75087-1.38351,1.49251-2.23292,2.071-.4492.0768-.66111.43129-.66111,1.10606v.42373c-.38227-.34342-.65767.19377-.80497.23717-.0976.55167-.3603,1.03675-.60431,1.5406-.0773.31452-.18376.52811-.2633.52811-.0735,0-.26031.0599-.41525.13313-.3331.15741-.54445.61092-.6512,1.39729-.10914.80402-.21326.94218-.68496.90891-.54011-.0381-.64851.0554-.709.6114-.29547,1.2744-1.33852,2.26662-2.15032,3.09027 .0155.31096.20989.56442.3171.85272 .0193.23936-.0168.26596-.48733.35872-.35101.1731-.81302.47344-1.16454.7809-.37659.23038-.43694.31416-.46396.64405-.0416.50809-.0743.5409-.61245.6144-.54601-.096-.35455.41139-.58379.67737-.16603.16711-.21391.17182-.57999.0569-.74142-.23267-.87203.0222-.51263,1.00036 .10653.28991.22493.71689.26312.94885 .0793.48193.0103.5146-.59832.28298-.34385-.13087-.37084-.12813-.47444.0482-.0884.19208-.0384.39144-.0588.60007-.0609.221-.10399.23806-.53667.21254-.86908-.093-.90396.25937-1.60137.83421-.0705.0359-.31094.32296-.5344.63788-.45271.63799-.73192.75037-1.59631.64245-.46536-.29639-.30208.83619-.30348,1.23051-.10183.38516-.19042.70999-.19688.72183s-.14931-.0258-.31743-.0836c-1.011.008-1.49658.69686-2.15711,1.366 .0106.34776-.319,1.45061-.4625,1.5478-.50968.0492-1.0424.0453-1.55467.0479-.061.0344-.14074.27086-.17723.52543-.10992.7671-.14988.86951-.38383.98354-.61593-.0906-.72787.37435-1.10191.59265-.20829.42672-.28792.50492-.515.50571-.28323.001-.39199.14461-.39199.51765-.0376.21893-.25394.28016-.40128.44271-.0821.19658-.17476.22549-.91095.28398-.45317.036-.85422.11493-.89703.17651-.45774.0533-.45693.53288-.63639.74218 0,.473-.0184.49036-.9909.93424-.40525.18497-.73682.39074-.73682.45725-.0791.2658-.31302.44974-.46889.6737-.0936.1405-.22816.16656-.77905.15092-.72815-.0207-.90724.072-.86209.44628-.38311,1.04136-.8833.98079-1.57163,1.30968-.33767-.043-.38966-.0219-.48023.19505-.0559.13382-.1713.24331-.25653.24331-.18623.2192-.17983.71301-.23403,1.03477-.0677.0617-.35013.11684-.62758.12257-.56783-.0742-.78409.36646-1.12595.60151-.33498,0-.8369.23414-1.19126.55568-.27601.25047-.328.36362-.31466.68481 .1012.56221-.37055.76103-.62506,1.12332 0,.20109-.47237.16819-.71142-.0495-.26336-.23989-.50815-.23767-.50815.005-.10824.47345-.22019.97596-.45139,1.29139-.1368.73314-.56952.98129-.98027,1.47459-.45915.41633-.73306.56196-1.0569.56196-.69475.22748-1.18383.80906-1.6609,1.2786-.48969.52914-.99749,1.16373-1.44022,1.67821 0,.24746-.0885.27743-.57805.19589-.56556-.0942-.67536-.0127-.66693.49531 .006.35893-.0232.42511-.18703.42511-.24991-.16472-.54254-.11933-.84174-.18514h-.64766l-.0499.43971c-.0646.56893-.64393,1.42375-.94143,1.3891-.0964-.38635-.34954-.71894-.46806-1.09909-.36076.60632-.72024,1.33191-1.00558,1.87476-.54597.29648-.42014.81255-.50062,1.35906-.007.37993-.0213.39814-.28702.37029-.31315-.10265-.40327-.73856-.49622-.98316-.23707-.0308-.72977.4428-.99972.96098-.14887.28575-.16086.28987-.56036.19275-.34086-.13657-.53441-.32064-.80208-.48124-.37698.46143-.50586,1.27206-.72409,1.8826 0,.24226-.29056.33699-.50116.16338-.30421-.25076-.8778-.42526-1.00801-.30666-.1013.17806-.24494.31534-.371.47763-.27315.2488-.3178.53796-.14645.94849 .0894.21408.0764.27869-.0762.38071-.16081.10748-.21185.091-.40726-.13162-.67754-.80594-.30518-.94408-1.21109-.24032 .0291.0891.0846.28299.12344.43086 .0675.25728.0579.26654-.22384.21478-.16195-.0298-.3675-.0799-.45679-.11136-.21246-.0749-1.02684.53842-1.14794.86456-.0499.13436-.17748.35719-.28352.49517-.16551.21537-.22912.2383-.44946.162-.53808-.18634-.7664-.0562-.84524.48182l-.0588.40129h-1.21956c-1.18732,0-1.22965.007-1.60201.2665-.38121.26562-.46184.41036-.52196.93692-.33745.32083-1.16175.7115-1.48708.89594-.003.33592-.19668.5075-.80986.71926-.43232.55553-.9561.6119-1.43632.9305-.38569.0355-.91303.56464-1.07118.70541-.81472-.49508-1.96957-.47469-2.64529-.49196l-3.84151-.0746c-.54413-.10052-1.08694.0765-1.59048.14148-1.24069.29735-2.41458.14167-3.68929.46023-.89362-.7829-1.58312-.62138-2.6873-.39343-.3119.55106-.58972.77432-.88075.70779-.68986.21506-1.25742.0839-1.76358.15497-.57862-.43925-.86328.0979-1.33018.50732-.37284.29703-1.04433.35155-1.53632.4196-.33805.21925-1.00585.30659-1.41096.18451z" fill="#584528"/>
</svg>
