<?xml version="1.0" encoding="UTF-8"?>
<!-- Generated by Pixelmator Pro 3.3.7 -->
<svg width="1920" height="1920" viewBox="0 0 1920 1920" xmlns="http://www.w3.org/2000/svg">
    <g id="Group">
        <path id="Dome" fill="#1a1a1a" fill-rule="evenodd" stroke="none" d="M 1438 631 L 1438 631 C 1438 513.915527 1191.085083 419 886.5 419 C 581.914856 419 335 513.915527 335 631 L 335 843 L 1438 843 L 1438 631 Z"/>
        <path id="Path" fill="#fed000" stroke="none" d="M 337.131561 887.922119 L 1437.597778 885.794067 L 1437.064453 1320.017334 L 1437.597778 1356.203613 C 1437.597778 1356.203613 1438.467896 1371.903687 1441.320923 1379.085205 C 1445.122803 1388.655273 1449.835938 1394.516113 1449.835938 1394.516113 C 1456.591797 1400.449829 1460.792114 1401.477173 1466.333008 1399.838745 C 1472.257568 1398.086914 1478.040527 1391.856812 1478.040527 1385.469971 L 1479.635498 1370.570313 L 1479.635498 1321.614502 L 1585 1321.081421 C 1584.393066 1344.997681 1584.001221 1369.17749 1578.082153 1386.003174 C 1573.478027 1408.362305 1565.598511 1425.912109 1554.667358 1443.473877 C 1545.637817 1457.980713 1533.800171 1470.822754 1520.611328 1481.788452 C 1520.611328 1481.788452 1504.133545 1491.655029 1495.068359 1494.560059 C 1482.071411 1498.724854 1468.255005 1501.654175 1454.625488 1500.944702 C 1432.62561 1499.799438 1409.334595 1495.77356 1390.767944 1483.916748 C 1372.086182 1471.986328 1359.476318 1451.912476 1348.196899 1432.830566 C 1339.280029 1417.745605 1333.971191 1400.69043 1329.041016 1383.874878 C 1324.969604 1369.988037 1322.278809 1355.668701 1320.525879 1341.303955 C 1313.627563 1284.773804 1312.765259 1170.63208 1312.765259 1170.63208 L 1310.131226 1154.720947 L 1301.744751 1142.842773 C 1294.814331 1136.968018 1287.883789 1136.321045 1280.955444 1138.455688 L 1272.322388 1145.959229 L 1267.182983 1160.612549 L 1267.311523 1490.299316 L 982.085938 1490.299316 L 979.957642 1228.484253 L 609.581543 1228.484253 L 609.581543 1490.299316 L 334.997009 1490.299316 L 337.125427 887.924438 L 337.125397 887.924438 L 337.131561 887.922119 Z"/>
        <g id="g1">
            <path id="path1" fill="#fed000" stroke="none" d="M 490.238068 791.338257 L 569.256714 734.895752 L 651.286499 793.594971 L 621.183533 701.031494 L 703.965576 639.321045 L 603.123047 638.568848 L 571.515625 542.241943 L 537.649231 637.816528 L 439.065613 637.064331 L 520.341003 700.279175 L 490.238068 791.338257 Z"/>
            <path id="path2" fill="#fed000" stroke="none" d="M 801.803284 791.338257 L 880.82196 734.143433 L 966.612976 792.090454 L 934.253296 698.772583 L 1014.776489 638.568848 L 916.190674 636.309937 L 883.830994 542.994263 L 849.966736 637.064331 L 753.637756 636.309937 L 833.410767 699.524902 L 801.803284 791.338257 Z"/>
            <path id="path3" fill="#fed000" stroke="none" d="M 1122.007935 790.960938 L 1201.026489 733.766235 L 1286.817627 791.713257 L 1254.457886 698.397583 L 1334.980957 638.19165 L 1236.397339 635.934937 L 1204.035522 542.616943 L 1170.171265 636.687134 L 1073.844482 635.934937 L 1153.615356 699.14978 L 1122.007935 790.960938 Z"/>
        </g>
    </g>
</svg>
