<?xml version="1.0" encoding="UTF-8"?>
<!-- Generated by Pixelmator Pro 3.3.7 -->
<svg width="400" height="400" viewBox="0 0 400 400" xmlns="http://www.w3.org/2000/svg">
    <path id="Path-copy-3" fill="#584528" fill-rule="evenodd" stroke="none" d="M 201.677734 374.486328 C 198.154251 374.096191 194.592789 374.028473 191.058594 374.289063 C 187.507202 374.112762 183.983932 373.827728 180.494141 373.433594 C 180.791153 373.205566 181.091125 372.975861 181.373047 372.753906 C 180.897858 370.58609 180.437317 368.417023 180.021484 366.234375 C 181.877487 364.185303 183.704529 362.092102 185.486328 359.96875 C 182.145493 355.73703 178.433243 351.743958 175.849609 346.962891 C 171.692215 339.746765 169.835434 331.520538 166.09375 324.111328 C 164.608932 320.963501 162.695145 317.622894 163.4375 314 C 163.972061 310.09494 167.668716 307.926025 170.296875 305.431641 C 167.193649 301.868073 164.17984 298.215454 161.417969 294.384766 C 162.323715 291.281342 164.698029 288.192383 163.554688 284.851563 C 162.901398 281.688904 161.387009 278.631714 161.580078 275.365234 C 163.480606 271.341431 167.372055 268.875488 170.638672 266.083984 C 166.986038 261.837433 162.590637 258.126526 159.769531 253.226563 C 157.764984 247.287247 157.676025 240.901428 155.701172 234.947266 C 151.172485 231.442917 145.29306 229.943863 141.150391 225.845703 C 136.710754 221.435684 134.126205 215.57164 131.572266 209.958984 C 139.827896 201.035217 152.166183 198.138947 163.851563 197.322266 C 181.446701 196.104767 199.131165 196.415802 216.755859 196.712891 C 232.004944 197.039459 247.18045 199.920425 261.345703 205.607422 C 259.489594 196.371887 254.233154 188.250732 246.408203 182.964844 C 244.804642 186.394669 242.414673 189.348206 239.326172 191.560547 C 234.901505 186.185562 232.198547 179.71254 228.189453 174.070313 C 222.220459 174.129623 224.15007 182.429428 222.724609 186.378906 C 220.348892 182.221527 217.97464 178.063934 215.287109 174.099609 C 212.881699 176.712677 210.580429 179.415665 208.308594 182.132813 C 203.705704 178.762253 201.981766 173.313705 200.066406 168.220703 C 195.374329 168.458298 190.699112 168.917358 186.066406 169.689453 C 184.59642 175.257507 183.05043 180.810318 181.402344 186.333984 C 178.982086 181.018219 176.934204 175.539566 174.707031 170.134766 C 170.965225 171.159225 167.267075 172.33284 163.599609 173.580078 C 164.134033 178.984818 164.699615 184.389816 164.669922 189.824219 C 160.913406 185.35498 158.343781 180.098785 155.730469 174.931641 C 152.256073 176.520294 148.841339 178.197388 145.470703 179.994141 C 145.827164 182.830017 146.242889 185.652206 146.628906 188.488281 C 145.886566 189.171265 144.416306 190.535843 143.673828 191.21875 C 138.833328 183.51265 131.543182 177.411896 128.335938 168.710938 C 131.869843 169.690765 135.419235 170.610718 139.027344 171.234375 C 138.804581 168.146072 138.418045 165.087143 138.046875 162.013672 C 140.630371 164.062729 143.079163 166.333801 145.974609 167.9375 C 148.320648 168.768906 150.845779 167.685532 153.236328 167.537109 C 153.473938 164.597229 153.68129 161.657669 153.933594 158.732422 C 159.828369 162.355484 166.05098 166.006561 173.296875 165.011719 C 173.71257 159.889175 174.157639 154.768036 174.78125 149.660156 C 179.502869 153.075302 182.502533 158.079193 182.888672 163.958984 C 188.64975 164.627335 194.499863 164.820633 200.246094 163.855469 C 195.895645 159.0298 190.162964 155.940094 184.876953 152.332031 C 180.630386 149.585144 179.369888 144.166138 175.316406 141.181641 C 169.6147 136.801331 164.520645 129.94165 166.035156 122.369141 C 167.891144 116.518982 171.500244 111.367126 173.296875 105.501953 C 173.757111 99.429108 171.959259 92.583191 175.998047 87.341797 C 182.234314 78.774323 193.505066 77.318604 202.859375 74.111328 C 211.055527 71.631805 220.349472 67.652618 223.185547 58.773438 C 225.486923 53.843781 222.606995 48.766418 221.330078 44 C 234.188477 54.468079 243.527222 69.687622 246.511719 86.080078 C 250.10498 102.769379 246.289337 120.780548 236.964844 134.990234 C 233.742752 140.127808 228.828613 143.780457 224.730469 148.130859 C 223.498093 152.377609 224.270203 156.890839 224.507813 161.226563 C 228.472244 159.726913 232.243469 157.766266 235.925781 155.6875 C 236.608765 159.132156 237.14357 162.606644 237.722656 166.066406 C 244.374619 165.873337 250.743103 163.883377 256.623047 160.869141 C 255.865723 165.130524 255.109955 169.377594 254.560547 173.683594 C 260.039459 171.916565 264.819733 168.695267 269.214844 165.072266 C 268.620941 168.888336 267.552277 172.599838 266.201172 176.222656 C 267.997803 176.935394 269.795166 177.632782 271.591797 178.345703 C 268.666656 182.295166 265.78479 186.274963 263.052734 190.373047 C 265.517517 197.663528 267.700439 205.103043 269.140625 212.675781 C 266.913422 217.30835 264.731537 222.222305 261.09375 225.949219 C 253.729004 231.918182 243.824524 232.853363 234.722656 233.669922 C 235.687759 238.213501 236.99498 243.024307 235.480469 247.597656 C 234.144073 251.45813 230.20816 253.359802 227.876953 256.507813 C 226.733749 263.530945 226.897339 271.206238 230.386719 277.576172 C 236.088425 288.727173 241.968613 299.788483 247.640625 310.939453 C 249.897476 315.067352 250.076843 319.833618 250.314453 324.421875 C 250.813171 338.397278 251.359604 352.408691 251.109375 366.396484 C 242.938904 369.039978 234.492355 371.071289 225.826172 372.439453 C 222.464355 367.742371 217.708878 363.926117 211.916016 362.865234 C 207.417023 361.662659 202.056931 362.597351 198.330078 359.345703 C 202.947815 358.306183 212.376266 359.301331 212.138672 352.515625 C 206.006424 346.04184 199.398666 339.731445 196.191406 331.164063 C 193.088196 336.732117 187.831818 340.414063 183.347656 344.779297 C 186.599442 350.896759 190.17749 357.786865 188.455078 364.914063 C 186.316956 367.096649 181.996674 366.427795 181.521484 370.273438 C 185.51561 371.312927 189.658112 371.267639 193.726563 370.822266 C 203.946167 369.865387 214.450806 369.675995 224.357422 372.666016 C 216.944824 373.768829 209.373962 374.388214 201.677734 374.486328 Z M 232.451172 353.912109 C 236.48996 345.567413 236.830368 336.092896 237.097656 327.005859 C 236.711639 314.637238 234.693893 302.000977 228.992188 290.894531 C 226.80954 284.806824 218.879578 285.683289 215.197266 280.976563 C 210.490341 276.492432 210.98056 269.171631 206.837891 264.464844 C 207.075485 272.096802 207.980698 280.234558 212.539063 286.619141 C 214.855423 289.974823 219.027634 291.013794 222.130859 293.404297 C 225.159882 296.210632 226.467621 300.294708 227.789063 304.095703 C 232.76326 320.146606 234.277618 337.207947 232.451172 353.912109 Z M 205.980469 319.830078 C 206.532822 319.834717 207.086594 319.826965 207.640625 319.804688 C 207.373352 316.864807 207.564865 312.470612 203.837891 311.683594 C 196.948334 309.649445 189.657898 309.841064 182.560547 309.455078 C 176.933044 309.499664 170.60849 308.416534 165.886719 312.232422 C 166.272736 314.25174 166.1698 316.65799 168.070313 317.994141 C 175.331177 319.063202 182.72403 318.127228 190.029297 318.617188 C 195.371429 318.603668 200.641022 319.785248 205.980469 319.830078 Z M 208.013672 302.125 C 209.307281 302.147583 210.607056 302.007629 211.916016 301.630859 C 214.544174 300.947937 214.901184 297.94751 216 295.898438 C 204.7005 293.47818 194.528824 285.565704 182.576172 287.005859 C 176.354736 287.852386 170.355698 289.856018 164.460938 291.919922 C 168.945084 296.626709 174.587479 300.739075 181.150391 301.763672 C 185.782959 302.446655 189.896301 299.656067 194.335938 299.017578 C 198.859955 299.887573 203.393631 302.044312 208.013672 302.125 Z M 185.242188 280.365234 C 189.63353 280.352264 193.964035 279.856384 198.017578 278.082031 C 197.349442 276.062683 196.786209 273.998108 195.835938 272.097656 C 193.356323 270.761292 190.372284 271.251282 187.669922 270.865234 C 187.343277 272.023499 186.703598 274.355469 186.376953 275.513672 C 179.754669 273.449768 172.910767 271.592346 165.902344 272.349609 C 166.867447 275.467712 167.771805 280.323212 172.107422 279.744141 C 176.398499 279.90744 180.850845 280.378204 185.242188 280.365234 Z M 187.832031 264.443359 C 190.055542 264.447083 192.280258 264.444153 194.5 264.421875 C 190.208923 258.868713 185.828918 251.977631 178.226563 251.027344 C 178.924515 255.556107 180.037537 259.997131 181.166016 264.421875 C 183.385834 264.429321 185.608521 264.439636 187.832031 264.443359 Z M 171.541016 246.876953 C 173.73735 246.87178 176.233032 245.910553 178.269531 245.787109 C 193.474106 241.971207 209.302185 243.292709 224.447266 246.648438 C 221.15097 243.693436 217.17157 241.658417 212.984375 240.351563 C 199.428009 235.97142 185.189331 232.972061 170.890625 233.744141 C 169.197876 237.248291 167.045929 240.917221 167.699219 244.970703 C 168.676422 246.436478 170.038254 246.880493 171.541016 246.876953 Z M 197.525391 131.496094 C 204.643097 131.621094 211.393692 128.016113 217.201172 124.105469 C 228.292755 116.339905 238.107407 105.635498 241.878906 92.361328 C 245.917542 81.225189 239.310272 69.955109 233.445313 60.808594 C 234.395584 71.335938 233.207718 82.116089 229.599609 92.064453 C 224.833328 104.135895 213.251526 111.767731 201.521484 116.103516 C 196.710678 118.16745 191.157394 119.043396 187.148438 122.636719 C 185.440842 127.269287 190.56485 130.460724 194.455078 131.203125 C 195.485184 131.383148 196.508575 131.478241 197.525391 131.496094 Z M 173.816406 110.400391 C 182.20549 107.237671 190.995483 105.544983 199.755859 103.867188 C 210.238678 101.832947 220.884247 96.919128 226.660156 87.535156 C 232.955795 76.844543 233.194077 62.798553 226.972656 52.003906 C 226.230301 56.369324 225.709793 60.985626 223.037109 64.667969 C 210.312271 83.629059 187.758774 92.612335 173.816406 110.400391 Z M 175.746094 103.347656 C 187.476135 93.339966 200.334595 84.639496 211.544922 74.052734 C 201.418442 77.631012 190.311264 79.176361 181.253906 85.234375 C 175.374115 89.228638 175.122482 96.977692 175.746094 103.347656 Z"/>
    <path id="red-copy" fill="none" stroke="#b71234" stroke-width="20" d="M 215.40625 23.1875 L 233.078125 25.65625 L 250.1875 29.828125 L 266.59375 35.609375 L 282.21875 42.890625 L 296.96875 51.609375 L 310.671875 61.59375 L 317.3125 67.21875 L 326.546875 76.03125 L 337.8125 88.71875 L 347.875 102.515625 L 356.59375 117.265625 L 363.875 132.890625 L 369.65625 149.296875 L 373.828125 166.40625 L 376.296875 184.0625 L 377.015625 200 L 376.296875 215.921875 L 373.828125 233.578125 L 369.65625 250.6875 L 363.875 267.09375 L 356.59375 282.71875 L 347.875 297.46875 L 337.890625 311.171875 L 332.265625 317.8125 L 323.453125 327.046875 L 310.765625 338.3125 L 296.96875 348.375 L 282.21875 357.09375 L 266.59375 364.375 L 250.1875 370.15625 L 233.078125 374.328125 L 215.421875 376.796875 L 199.5 377.515625 L 183.5625 376.796875 L 165.90625 374.328125 L 148.796875 370.15625 L 132.390625 364.375 L 116.765625 357.09375 L 102.015625 348.375 L 88.3125 338.390625 L 81.671875 332.765625 L 72.4375 323.953125 L 61.171875 311.265625 L 51.109375 297.46875 L 42.390625 282.71875 L 35.109375 267.09375 L 29.328125 250.6875 L 25.15625 233.578125 L 22.6875 215.90625 L 21.984375 200 L 22.6875 184.078125 L 25.15625 166.40625 L 29.328125 149.296875 L 35.109375 132.890625 L 42.390625 117.265625 L 51.109375 102.515625 L 61.09375 88.8125 L 66.71875 82.171875 L 75.53125 72.9375 L 88.21875 61.671875 L 102.015625 51.609375 L 116.765625 42.890625 L 132.390625 35.609375 L 148.796875 29.828125 L 165.90625 25.65625 L 183.578125 23.1875 L 199.5 22.484375 Z"/>
</svg>
